<svg width="104" height="105" viewBox="0 0 104 105" fill="none" xmlns="http://www.w3.org/2000/svg">
<path d="M9.61068 77.7892C9.63152 77.8187 9.62309 77.8671 9.61527 77.9299C9.61528 77.93 9.6153 77.93 9.61531 77.93C9.61412 77.9389 9.61289 77.9481 9.61186 77.9576C9.60317 78.0332 9.60485 78.1366 9.66122 78.253C9.72682 78.3851 9.71225 78.565 9.68086 78.7192C9.67455 78.7475 9.67777 78.7693 9.69761 78.804C9.71081 78.8269 9.73135 78.8552 9.76297 78.8965C9.77982 78.9185 9.79992 78.9441 9.82415 78.9747C9.90348 79.0757 10.0686 79.1908 10.2273 79.2877C10.3224 79.3463 10.4235 79.4045 10.4903 79.4496C10.5894 79.5164 10.6838 79.5996 10.7877 79.6869C10.8797 79.7651 10.9851 79.8501 11.1211 79.9326C11.2197 79.9932 11.2819 80.1334 11.3496 80.2868C11.3582 80.3064 11.367 80.3261 11.3758 80.3459C11.4379 80.4829 11.4949 80.6188 11.5882 80.7197C11.757 80.9002 11.9346 80.9186 12.1347 80.9368C12.2129 80.9438 12.2965 80.9513 12.3823 80.967C12.5128 80.9903 12.6951 81.0516 12.8869 81.1127C12.9032 81.1179 12.9197 81.1229 12.9361 81.1281C12.9362 81.1281 12.9362 81.1282 12.9363 81.1282C13.1039 81.1815 13.2721 81.2317 13.4028 81.2542C13.6133 81.2907 13.6924 81.2675 13.7631 81.2499C13.7893 81.2432 13.8137 81.2368 13.8416 81.234C13.9423 81.2237 14.0831 81.2623 14.2303 81.3003C14.2309 81.3004 14.2315 81.3005 14.232 81.3007C14.2564 81.307 14.2528 81.4217 14.2239 81.5569C14.1949 81.692 14.151 81.7965 14.126 81.7901C14.0463 81.7695 13.9695 81.7492 13.9003 81.7359C13.8705 81.8509 13.8319 81.9344 13.8098 81.9284C13.7523 81.9126 13.5715 81.9638 13.263 82.0363C13.2764 82.0621 13.287 82.0865 13.2959 82.1094C13.3064 82.1363 13.314 82.159 13.3206 82.1785C13.3344 82.2192 13.3437 82.246 13.3645 82.2692C13.4182 82.3029 13.51 82.3295 13.6083 82.3566C13.6331 82.3635 13.628 82.478 13.5967 82.6126C13.5655 82.7472 13.5193 82.8508 13.4939 82.8439C13.4934 82.8437 13.4929 82.8436 13.4924 82.8435C13.3927 82.8161 13.2957 82.7883 13.2382 82.7523C13.2237 82.7431 13.2112 82.7334 13.2016 82.7251C13.194 82.7184 13.1847 82.7096 13.1807 82.7002C13.1801 82.699 13.1791 82.6965 13.1781 82.6928C13.1781 82.6927 13.1781 82.6926 13.1781 82.6925C13.1775 82.6905 13.1746 82.6801 13.1741 82.659C13.174 82.6548 13.1738 82.6453 13.1746 82.6302C13.1741 82.6289 13.1737 82.6276 13.1733 82.6263C13.167 82.6085 13.1607 82.5902 13.1535 82.5722C13.1255 82.5019 13.0758 82.41 12.959 82.2943C12.8512 82.1876 12.6538 82.099 12.3849 82.0165C12.3997 82.0319 12.4148 82.0469 12.43 82.0616C12.4684 82.0984 12.5081 82.1333 12.5487 82.1671C12.5642 82.18 12.5796 82.1927 12.5955 82.2054C12.6213 82.2259 12.6463 82.2458 12.6704 82.2652C12.6869 82.2783 12.7036 82.2913 12.7202 82.3043C12.7203 82.3043 12.7203 82.3044 12.7204 82.3044C12.7435 82.3225 12.7669 82.3406 12.7905 82.3591C12.7987 82.3658 12.8069 82.3723 12.815 82.3787C12.8474 82.4042 12.8795 82.4291 12.9137 82.4694C12.9176 82.4756 12.9214 82.4834 12.9242 82.4897C12.9272 82.4964 12.93 82.5031 12.9326 82.5098C12.9348 82.5158 12.9369 82.5218 12.9389 82.5275C12.9392 82.5282 12.9395 82.5289 12.9398 82.5297C12.942 82.536 12.9443 82.5418 12.9464 82.5474C12.9486 82.5529 12.9507 82.5582 12.9529 82.5629C12.9529 82.563 12.9529 82.563 12.9529 82.563C12.9553 82.5678 12.957 82.5715 12.9597 82.5759C12.963 82.5813 12.966 82.5856 12.9698 82.5901C12.9735 82.5945 12.9775 82.5986 12.9816 82.6023C12.9857 82.606 12.99 82.6095 12.9944 82.6127C12.9988 82.616 13.0034 82.6191 13.008 82.6221C13.0126 82.625 13.0174 82.6278 13.0222 82.6306C13.027 82.6333 13.0319 82.6361 13.0368 82.6389C13.048 82.6452 13.0527 82.6751 13.0496 82.7229C13.0465 82.7707 13.0358 82.8322 13.0198 82.8947C13.0037 82.9571 12.9834 83.0159 12.963 83.0586C12.9427 83.1013 12.924 83.1243 12.911 83.1233C12.9075 83.1231 12.9039 83.1229 12.9003 83.1226C12.8982 83.1224 12.8961 83.1221 12.894 83.1219C12.8883 83.1214 12.8825 83.121 12.8768 83.1202C12.8711 83.1195 12.8653 83.1185 12.8596 83.1173C12.8539 83.1161 12.8481 83.1147 12.8424 83.1128C12.8367 83.1109 12.831 83.1085 12.8254 83.1055C12.8198 83.1026 12.8138 83.0985 12.8086 83.094C12.8048 83.0908 12.8003 83.0859 12.7967 83.0815C12.7929 83.077 12.7893 83.0721 12.7859 83.067C12.7824 83.062 12.7793 83.0568 12.7762 83.0518C12.7759 83.0513 12.7755 83.0508 12.7752 83.0503C12.7725 83.0459 12.7699 83.0417 12.7674 83.0379C12.7646 83.0336 12.7619 83.0298 12.7592 83.0266C12.7563 83.0229 12.7543 83.0212 12.7519 83.0193C12.7182 83.0019 12.6737 82.9916 12.6315 82.9816C12.6262 82.9803 12.621 82.979 12.6158 82.9777C12.5881 82.9713 12.5605 82.9652 12.5329 82.959C12.5129 82.9545 12.4929 82.95 12.473 82.9454C12.4442 82.9387 12.4135 82.9311 12.3826 82.923C12.3635 82.918 12.3448 82.9129 12.326 82.9076C12.2767 82.8936 12.228 82.8784 12.1802 82.8609C12.1325 82.8434 12.0855 82.8235 12.0399 82.8C11.9946 82.7766 11.9491 82.7484 11.9079 82.714C11.8777 82.6885 11.8504 82.6521 11.8263 82.6157C11.8123 82.5957 11.7988 82.5757 11.7857 82.5557C11.7857 82.5556 11.7857 82.5555 11.7856 82.5554C11.7741 82.5379 11.7629 82.5206 11.7516 82.5039C11.7274 82.4681 11.7032 82.4351 11.6782 82.4056C11.6531 82.3761 11.6274 82.3501 11.6003 82.3275C11.5735 82.3051 11.5453 82.2858 11.5165 82.2697C11.4875 82.2535 11.4581 82.2405 11.4266 82.2292C11.385 82.2146 11.3431 82.2039 11.299 82.1931C11.2533 82.1817 11.207 82.1714 11.1608 82.1609C11.1447 82.1573 11.1286 82.1534 11.1125 82.1497C11.1124 82.1497 11.1123 82.1497 11.1123 82.1497C11.0825 82.1429 11.0527 82.1361 11.023 82.129C10.9773 82.118 10.9319 82.1066 10.887 82.0938C10.8422 82.0811 10.7979 82.067 10.7546 82.0504C10.7128 82.0343 10.6641 82.0125 10.6221 81.9853C10.5839 81.961 10.5468 81.9344 10.5109 81.9081C10.5015 81.9012 10.4921 81.8943 10.4827 81.8874C10.438 81.8546 10.3946 81.8246 10.3491 81.8014C10.3032 81.7779 10.2575 81.7618 10.204 81.748C10.1508 81.7342 10.0951 81.7248 10.0378 81.7179C9.98026 81.7109 9.92226 81.7066 9.8625 81.7034C9.80316 81.7003 9.74296 81.6983 9.68161 81.697C9.64846 81.6967 9.61007 81.6919 9.57631 81.6871C9.54188 81.682 9.50842 81.6757 9.47581 81.6687C9.46257 81.6659 9.44951 81.663 9.4365 81.6601C9.41754 81.6559 9.39883 81.6516 9.38026 81.6477C9.34892 81.641 9.31797 81.6352 9.28687 81.6314C9.25577 81.6275 9.22443 81.6257 9.19224 81.6271C9.15888 81.6285 9.12955 81.6326 9.09211 81.6412C9.00625 81.6491 8.95937 81.6383 8.90906 81.6274C8.89909 81.6252 8.88884 81.623 8.87814 81.6208C8.81831 81.6061 8.76164 81.5867 8.70809 81.5643C8.65403 81.5416 8.60343 81.5161 8.5542 81.487C8.5029 81.4564 8.4538 81.4225 8.40732 81.3861C8.36092 81.3498 8.31707 81.311 8.27576 81.2694C8.23403 81.2276 8.19649 81.1841 8.1586 81.1365C8.13677 81.109 8.11526 81.0782 8.09627 81.0488C8.08256 81.0277 8.06955 81.0064 8.05697 80.9855C8.05184 80.977 8.04676 80.9685 8.04174 80.9602C8.02442 80.9314 8.00761 80.9038 7.99029 80.8786C7.97298 80.8535 7.95516 80.8306 7.93574 80.8107C7.91607 80.7905 7.89594 80.7743 7.87125 80.7584C7.84582 80.7423 7.82303 80.7308 7.79133 80.7187C7.7706 80.711 7.75017 80.7035 7.72981 80.6959C7.69934 80.6846 7.66891 80.6734 7.63806 80.6623C7.60725 80.6512 7.57657 80.6403 7.54542 80.6296C7.5354 80.6261 7.52483 80.6225 7.51471 80.619C7.48342 80.6085 7.45211 80.5983 7.42024 80.5885C7.38774 80.5781 7.35431 80.5674 7.32057 80.5576C7.28663 80.5477 7.25254 80.5384 7.21692 80.5294C7.15628 80.5143 7.11108 80.4875 7.07436 80.4617C7.03737 80.4354 7.00618 80.4079 6.9762 80.3809C6.97053 80.3757 6.96518 80.371 6.95922 80.3654C6.9342 80.3422 6.90996 80.3192 6.88556 80.2969C6.8555 80.2694 6.82528 80.243 6.79411 80.2172C6.76324 80.1915 6.73122 80.1662 6.69836 80.1422C6.66517 80.1179 6.63243 80.0954 6.59575 80.0718C6.55856 80.047 6.51717 80.024 6.47222 79.9981C6.42764 79.9724 6.38148 79.9446 6.33776 79.9141C6.294 79.8836 6.25245 79.8504 6.21471 79.8151C6.17749 79.7808 6.14059 79.7394 6.1088 79.6991C6.07654 79.6581 6.04765 79.6155 6.02157 79.5718C5.99552 79.5283 5.97142 79.482 5.95136 79.4376C5.91886 79.3658 5.88741 79.2888 5.85943 79.2137C5.83144 79.1386 5.8058 79.063 5.78239 78.9874C5.7582 78.91 5.73588 78.8317 5.71595 78.754C5.69587 78.6758 5.67848 78.5996 5.66185 78.5202C5.65818 78.5026 5.6546 78.485 5.65111 78.4675C5.63885 78.4057 5.62777 78.3441 5.61774 78.283C5.61771 78.2826 5.61768 78.2821 5.61765 78.2817C5.60468 78.2031 5.59377 78.1268 5.5827 78.0473C5.57865 78.0184 5.57494 77.9907 5.57102 77.9627C5.56708 77.9347 5.56315 77.9073 5.55901 77.8797C5.55485 77.8522 5.55048 77.8249 5.54582 77.7982C5.54105 77.771 5.53617 77.7453 5.53022 77.7183C5.52485 77.6937 5.51856 77.6694 5.51202 77.6428C5.51142 77.6404 5.51083 77.6379 5.51023 77.6355C5.5031 77.6064 5.49673 77.5732 5.49413 77.5419C5.48762 77.4588 5.48133 77.3801 5.47441 77.2976C5.46752 77.2151 5.46057 77.1335 5.45453 77.0516C5.45219 77.0197 5.44986 76.9876 5.44794 76.9556C5.44495 76.9052 5.44264 76.8543 5.44146 76.8037C5.43951 76.7203 5.44081 76.6377 5.44674 76.5547C5.4527 76.4711 5.46344 76.3879 5.47911 76.3066C5.49469 76.2258 5.51544 76.1441 5.54058 76.0652C5.56869 75.9771 5.59994 75.8932 5.63424 75.8079C5.66852 75.7231 5.70539 75.6404 5.74416 75.5604C5.7831 75.4797 5.82463 75.3992 5.86773 75.3223C5.91073 75.2456 5.95631 75.1688 6.00355 75.0946C6.03183 75.0502 6.06076 75.0067 6.0902 74.964C6.08819 74.9352 6.08667 74.9063 6.08531 74.8791C6.07578 74.6781 6.07657 74.5292 6.11841 74.3488C6.12042 74.3307 6.11878 74.3143 6.11695 74.2944C6.1166 74.2906 6.11634 74.2866 6.116 74.2825C6.11407 74.2561 6.11339 74.2259 6.12224 74.1892C6.14032 74.1151 6.19478 74.0195 6.37031 73.9512C6.41439 73.9345 6.54031 73.9839 6.65219 74.0598C6.73071 74.113 6.78202 74.1643 6.79129 74.1947C6.82535 74.1685 6.86008 74.1435 6.89473 74.1192C6.90858 74.1096 6.94264 74.1137 6.98981 74.1316C7.03701 74.1494 7.09328 74.1792 7.14715 74.2144C7.20104 74.2496 7.2485 74.2875 7.28007 74.3199C7.31159 74.3522 7.32455 74.3763 7.31631 74.3877C7.29433 74.4179 7.27259 74.4484 7.25183 74.4799C7.23109 74.5113 7.21105 74.5442 7.193 74.5756C7.17467 74.6075 7.15722 74.6402 7.14043 74.6737C7.12378 74.7068 7.10739 74.7413 7.09234 74.7751C7.07732 74.8089 7.06339 74.8425 7.04961 74.8771C7.04137 74.8979 7.03312 74.919 7.02536 74.9399C7.02242 74.9477 7.01976 74.9554 7.01698 74.963C7.0147 74.9693 7.01235 74.9755 7.00999 74.982C6.98588 75.0497 6.96413 75.1174 6.94395 75.1867C6.92342 75.2568 6.90583 75.3247 6.88945 75.3946C6.87312 75.4645 6.85867 75.5353 6.84632 75.6049C6.83389 75.6747 6.82291 75.7464 6.81424 75.8168C6.80569 75.8869 6.79873 75.9578 6.79402 76.0292C6.79032 76.0848 6.78853 76.138 6.78791 76.1928C6.79751 76.2157 6.80661 76.2382 6.81546 76.2603C6.84117 76.3248 6.87896 76.3891 6.9178 76.4503C6.90545 76.3473 6.88251 76.2589 6.86224 76.1753C6.85953 76.164 6.85684 76.1528 6.85429 76.1417C6.82831 76.0286 6.81245 75.9137 6.8543 75.7777C6.97641 75.3898 7.08811 75.1801 7.17275 75.0614C7.2608 74.9403 7.33079 74.9088 7.44075 74.9003C7.59624 74.8879 7.73115 74.8007 7.77194 74.739C7.78652 74.7166 7.89391 74.7576 8.01152 74.8302C8.12918 74.9028 8.21431 74.9769 8.20171 74.996C8.16367 75.0529 8.03165 75.1323 7.85107 75.1394C7.77134 75.1412 7.71026 75.1591 7.62991 75.264C7.55265 75.3668 7.45189 75.5521 7.3403 75.8984C7.3035 76.0151 7.32039 76.1142 7.34779 76.2147C7.35048 76.2246 7.35341 76.2346 7.35627 76.2446C7.35626 76.2446 7.35625 76.2447 7.35624 76.2448C7.38277 76.3373 7.41407 76.4361 7.42377 76.5614C7.44107 76.8544 7.56143 77.225 7.62497 77.3011C7.63687 77.3168 7.64998 77.3316 7.66384 77.3471C7.71771 77.4065 7.78004 77.4743 7.85578 77.6342C7.87241 77.6686 7.88815 77.7098 7.9039 77.7557C7.98946 77.807 8.06987 77.8493 8.12476 77.891C8.17203 77.9268 8.24437 77.9492 8.32005 77.9626C8.34188 77.9665 8.36452 77.97 8.38705 77.9734C8.44142 77.9813 8.49566 77.988 8.54 77.9975C8.57535 78.0051 8.6164 78.0106 8.65972 78.0156C8.81676 78.0318 9.00141 78.0375 9.06806 78.137C9.14194 78.2472 9.18692 78.3542 9.23255 78.4543C9.20848 78.3736 9.20561 78.305 9.20677 78.2478C9.207 78.2371 9.20738 78.2267 9.20781 78.2168C9.21001 78.1455 9.21416 78.0952 9.19054 78.0612C9.07919 77.8972 9.01571 77.856 8.86676 77.8294C8.82797 77.8225 8.77844 77.8172 8.72502 77.8101C8.61865 77.7967 8.49427 77.77 8.41308 77.7195C8.33769 77.6733 8.23401 77.6188 8.12736 77.5549C8.12735 77.5548 8.12734 77.5548 8.12733 77.5548C8.1065 77.5423 8.08541 77.529 8.06433 77.5151C7.93589 77.4309 7.80942 77.3278 7.72882 77.2117C7.72021 77.1994 7.70867 77.1847 7.69552 77.1677C7.61955 77.0711 7.4901 76.8751 7.57856 76.6415C7.59795 76.5904 7.6367 76.5396 7.68237 76.4847C7.69629 76.468 7.71099 76.4509 7.72591 76.4327C7.79043 76.3546 7.86196 76.2657 7.92374 76.1438C7.97442 76.0447 8.02093 75.9211 8.07769 75.796C8.10546 75.7348 8.13549 75.6738 8.16879 75.6147C8.26896 75.4376 8.39098 75.2935 8.51941 75.166C8.51942 75.166 8.51944 75.1659 8.51946 75.1659C8.53472 75.1507 8.64199 75.1987 8.75892 75.2723C8.87577 75.3458 8.95993 75.4147 8.94672 75.4266C8.83298 75.5299 8.72286 75.6502 8.63365 75.8002C8.60433 75.8496 8.5778 75.9013 8.55309 75.9533C8.50215 76.0605 8.4599 76.1674 8.41211 76.2523C8.35344 76.3574 8.28287 76.4335 8.21913 76.5007C8.2038 76.517 8.18911 76.5317 8.17523 76.5463C8.13111 76.5926 8.09517 76.6333 8.07724 76.6748C7.99382 76.8688 8.11576 77.0301 8.19001 77.1117C8.20317 77.1264 8.21475 77.1392 8.2236 77.15C8.3003 77.2453 8.42119 77.3288 8.54501 77.3949C8.56509 77.4056 8.5853 77.4164 8.60527 77.426C8.60535 77.426 8.60544 77.426 8.60553 77.426C8.70834 77.4757 8.80912 77.5169 8.88181 77.5524C8.95572 77.5889 9.06382 77.602 9.16322 77.6071C9.21654 77.6097 9.26752 77.6109 9.31067 77.6143C9.46059 77.6265 9.51898 77.6562 9.61068 77.7892ZM6.73929 74.2363C6.6438 74.277 6.60104 74.3289 6.58142 74.3754C6.61374 74.3444 6.6468 74.3145 6.68048 74.2856C6.69958 74.2692 6.71913 74.2529 6.73929 74.2363ZM7.42659 77.9056C7.41587 77.8982 7.40508 77.8907 7.39425 77.8831C7.40595 77.9093 7.41771 77.9356 7.42979 77.9617C7.4448 77.9943 7.45924 78.0243 7.4745 78.0555C7.45831 78.0038 7.44249 77.953 7.42659 77.9056ZM8.64747 78.4088C8.57389 78.2982 8.39578 78.2777 8.23409 78.2506C8.1873 78.2423 8.14158 78.2324 8.10069 78.2205C8.08372 78.2155 8.06551 78.2109 8.04645 78.2066C8.0686 78.2732 8.09083 78.3354 8.109 78.3843C8.16487 78.5324 8.17875 78.6331 8.19086 78.721C8.19461 78.7467 8.19861 78.7715 8.20408 78.7962C8.2289 78.8029 8.25406 78.8101 8.27772 78.8184C8.31117 78.8302 8.34472 78.843 8.3748 78.8556C8.40512 78.8683 8.43443 78.8822 8.46173 78.8969C8.48926 78.9117 8.51514 78.9274 8.54006 78.9437C8.56353 78.9591 8.58611 78.975 8.6082 78.9904C8.60946 78.9913 8.61072 78.9922 8.61198 78.9931C8.63482 79.0086 8.65674 79.0231 8.67982 79.0344C8.70334 79.0458 8.72578 79.0527 8.75142 79.0537C8.78339 79.055 8.81505 79.057 8.84538 79.0596C8.87577 79.0623 8.90505 79.0656 8.93343 79.0695C8.9618 79.0733 8.98959 79.078 9.01541 79.0818C9.02386 79.0831 9.03264 79.0845 9.04091 79.0859C9.04471 79.0866 9.04857 79.0872 9.05234 79.0878C9.02505 79.0576 8.9961 79.0235 8.96828 78.9873C8.92816 78.9352 8.89493 78.8731 8.86194 78.8056C8.80189 78.6857 8.74461 78.5542 8.64747 78.4088ZM9.56392 79.4837C9.54877 79.4735 9.52544 79.46 9.49387 79.4409C9.4865 79.4365 9.47864 79.432 9.47056 79.427C9.47066 79.4273 9.47083 79.4274 9.47093 79.4276C9.48085 79.4522 9.49074 79.4745 9.5028 79.4973C9.52255 79.5364 9.54392 79.5729 9.5678 79.6081C9.5918 79.6433 9.61803 79.6767 9.64642 79.7083C9.67486 79.74 9.70564 79.7698 9.73827 79.7973C9.76956 79.8239 9.80179 79.8478 9.83698 79.8694C9.84817 79.8763 9.85965 79.8829 9.87134 79.8892C9.85373 79.8623 9.83436 79.8367 9.81438 79.8097C9.79821 79.788 9.7828 79.7662 9.76545 79.7406C9.7588 79.7308 9.7516 79.7179 9.74335 79.7028C9.71053 79.6429 9.66208 79.5501 9.56392 79.4837ZM10.2255 79.9502C10.2353 79.9522 10.2449 79.9545 10.2541 79.9571C10.2805 79.9646 10.3049 79.9744 10.3285 79.9846C10.3452 79.9918 10.3614 79.9994 10.3775 80.0067C10.3843 80.0098 10.3912 80.0129 10.398 80.0159C10.4094 80.021 10.4208 80.0258 10.4323 80.0306C10.3646 79.9751 10.2996 79.9236 10.23 79.877C10.229 79.8764 10.228 79.8759 10.2271 79.8753C10.2264 79.9007 10.2259 79.9257 10.2255 79.9502ZM77.8126 98.5358C77.7377 98.587 77.646 98.6055 77.5342 98.6245C77.5341 98.6245 77.5341 98.6245 77.534 98.6246C77.5179 98.6273 77.5013 98.6301 77.4842 98.633C77.3466 98.6567 77.1696 98.6927 76.9338 98.7819C76.6679 98.883 76.4122 98.8509 76.2355 98.7859C76.2028 98.7736 76.1733 98.7723 76.1115 98.7868C76.0706 98.7964 76.0169 98.8126 75.9386 98.835C75.8969 98.8468 75.8483 98.8605 75.7909 98.8756C75.6033 98.9251 75.3216 99.0427 75.0632 99.1358C74.9046 99.1935 74.751 99.2443 74.6347 99.2732C74.4631 99.316 74.2884 99.3349 74.1045 99.349C73.9342 99.3622 73.7506 99.3726 73.5446 99.393C73.3848 99.409 73.2148 99.332 73.0494 99.2393C73.0281 99.2275 73.0068 99.2155 72.9856 99.2034C72.8389 99.1198 72.6906 99.0314 72.5429 98.9847C72.2763 98.9013 72.0771 98.9549 71.8499 99.0092C71.7614 99.0303 71.6652 99.0512 71.5672 99.0629C71.4116 99.0816 71.1745 99.0735 70.9507 99.0565C70.9314 99.0551 70.912 99.0537 70.8927 99.0522C70.8926 99.0522 70.8925 99.0522 70.8924 99.0522C70.6841 99.0358 70.4763 99.0133 70.3284 99.0092C70.0899 99.002 69.9921 99.0289 69.9133 99.0529C69.884 99.0619 69.8568 99.0702 69.8249 99.0751C69.7099 99.0929 69.5422 99.062 69.3705 99.0265C69.3699 99.0264 69.3692 99.0263 69.3685 99.0262C69.34 99.0203 69.3361 98.9049 69.3599 98.7688C69.3837 98.6326 69.4253 98.5268 69.4528 98.5325C69.5406 98.5508 69.6258 98.5675 69.7024 98.5768C69.7241 98.4599 69.7577 98.3741 69.7817 98.3785C69.8418 98.3894 70.0404 98.3292 70.3459 98.2146C70.3285 98.191 70.3143 98.1682 70.302 98.1468C70.2877 98.1215 70.277 98.1 70.2678 98.0816C70.2487 98.0431 70.236 98.0177 70.2108 97.9971C70.1498 97.9699 70.0507 97.9534 69.9501 97.9353C69.9244 97.9306 69.9194 97.816 69.9392 97.6793C69.9589 97.5425 69.995 97.4352 70.0196 97.4396C70.02 97.4397 70.0205 97.4397 70.021 97.4398C70.1166 97.4572 70.215 97.4736 70.276 97.502C70.2914 97.5093 70.3046 97.5172 70.3144 97.5242C70.3222 97.5297 70.3318 97.5371 70.3367 97.5458C70.3374 97.547 70.3386 97.5493 70.34 97.5528C70.34 97.5529 70.34 97.553 70.34 97.5531C70.3408 97.555 70.3447 97.5649 70.3478 97.5856C70.3484 97.5898 70.3498 97.5992 70.3509 97.6142C70.3515 97.6154 70.352 97.6166 70.3526 97.6179C70.3607 97.6347 70.3689 97.6518 70.3781 97.6685C70.4138 97.7338 70.473 97.818 70.6058 97.9115C70.7319 97.9977 70.9525 98.0485 71.2311 98.0576C71.2123 98.0467 71.1936 98.036 71.1749 98.0257C71.1269 97.9998 71.0828 97.9758 71.0367 97.9525C71.0192 97.9436 71.0019 97.9348 70.9842 97.9261C70.9559 97.912 70.9274 97.8981 70.8989 97.8843C70.8797 97.875 70.8604 97.8657 70.8412 97.8564C70.8412 97.8564 70.8411 97.8564 70.8411 97.8564C70.8144 97.8435 70.7876 97.8303 70.7606 97.8168C70.7512 97.8118 70.7419 97.807 70.7326 97.8022C70.6961 97.7834 70.6588 97.7648 70.6198 97.7311C70.6152 97.7257 70.6102 97.7188 70.6066 97.7131C70.6027 97.707 70.599 97.7009 70.5955 97.6947C70.5924 97.6892 70.5895 97.6836 70.5867 97.6785C70.5863 97.6778 70.586 97.6771 70.5856 97.6764C70.5825 97.6706 70.5795 97.6652 70.5766 97.6601C70.5737 97.6551 70.5709 97.6502 70.5681 97.6459C70.5681 97.6459 70.5681 97.6459 70.568 97.6459C70.5651 97.6415 70.5629 97.6382 70.5598 97.6343C70.5558 97.6295 70.5524 97.6258 70.5481 97.622C70.5441 97.6183 70.5397 97.6149 70.5353 97.612C70.531 97.609 70.5265 97.6063 70.5218 97.6038C70.5173 97.6013 70.5126 97.599 70.5078 97.5968C70.5031 97.5947 70.4982 97.5927 70.4934 97.5908C70.4885 97.5888 70.4836 97.5868 70.4786 97.5849C70.4672 97.5804 70.4588 97.5517 70.4553 97.504C70.4519 97.4563 70.4538 97.3939 70.4604 97.3298C70.4671 97.2657 70.4781 97.2045 70.4908 97.1592C70.5036 97.1138 70.5171 97.0881 70.5285 97.0869C70.5316 97.0866 70.5348 97.0861 70.5379 97.0858C70.5398 97.0857 70.5417 97.0856 70.5435 97.0854C70.5486 97.085 70.5536 97.0844 70.5587 97.0842C70.5638 97.084 70.5689 97.084 70.574 97.0842C70.5792 97.0844 70.5844 97.0848 70.5896 97.0857C70.5948 97.0865 70.6001 97.0879 70.6054 97.0898C70.6106 97.0917 70.6164 97.0947 70.6215 97.0982C70.6253 97.1007 70.6299 97.1047 70.6336 97.1083C70.6376 97.1121 70.6414 97.1163 70.6451 97.1206C70.6488 97.125 70.6523 97.1295 70.6557 97.1338C70.656 97.1343 70.6564 97.1347 70.6568 97.1351C70.6597 97.1389 70.6626 97.1426 70.6654 97.1459C70.6684 97.1496 70.6714 97.1528 70.6742 97.1555C70.6773 97.1586 70.6792 97.1598 70.6816 97.1613C70.7144 97.1722 70.7567 97.1739 70.7965 97.1753C70.8015 97.1755 70.8064 97.1757 70.8113 97.1759C70.8375 97.1767 70.8635 97.177 70.8894 97.1772C70.9082 97.1773 70.927 97.1774 70.9458 97.1776C70.9734 97.1778 71.001 97.1782 71.0285 97.1788C71.0455 97.1792 71.0622 97.1798 71.0791 97.1804C71.1236 97.182 71.1663 97.1845 71.2125 97.1891C71.2577 97.1937 71.303 97.2002 71.348 97.2101C71.3929 97.2199 71.4393 97.2339 71.4841 97.2544C71.5169 97.2697 71.5506 97.296 71.5819 97.3231C71.5988 97.3376 71.6153 97.3524 71.6316 97.3671C71.6317 97.3671 71.6317 97.3672 71.6318 97.3673C71.6459 97.3802 71.661 97.393 71.6755 97.405C71.7067 97.431 71.7375 97.454 71.7682 97.4732C71.7989 97.4924 71.8295 97.5078 71.8602 97.5193C71.8907 97.5307 71.9216 97.5386 71.952 97.5429C71.9825 97.5472 72.0123 97.5482 72.0434 97.5465C72.0841 97.5441 72.1247 97.5375 72.1672 97.5296C72.2091 97.5216 72.2509 97.512 72.2925 97.5021C72.3071 97.4986 72.3216 97.4953 72.3362 97.4917C72.3362 97.4917 72.3363 97.4917 72.3363 97.4917C72.3632 97.485 72.39 97.4783 72.4167 97.4716C72.4579 97.4612 72.4989 97.4509 72.5399 97.4416C72.5815 97.4322 72.6243 97.4235 72.6667 97.4171C72.7093 97.4108 72.753 97.4064 72.7977 97.4087C72.8375 97.4107 72.8778 97.4146 72.9171 97.4184C72.9275 97.4193 72.9379 97.4203 72.9483 97.4213C72.9967 97.4257 73.0468 97.4272 73.0932 97.4214C73.1398 97.4157 73.185 97.4027 73.2292 97.3837C73.2732 97.3649 73.3163 97.3403 73.3586 97.312C73.4005 97.2838 73.4436 97.2519 73.485 97.2177C73.5262 97.1836 73.5666 97.1474 73.6064 97.1094C73.6285 97.0883 73.6523 97.068 73.6749 97.05C73.6978 97.0319 73.7201 97.0152 73.7432 96.999C73.7525 96.9924 73.7618 96.986 73.7711 96.9796C73.7845 96.9702 73.7978 96.9609 73.8107 96.9514C73.8324 96.9354 73.8532 96.9188 73.8727 96.9005C73.8922 96.8823 73.9102 96.8621 73.9265 96.8391C73.9432 96.8151 73.9559 96.792 73.9696 96.76C74.0066 96.6953 74.0328 96.6707 74.0634 96.6426C74.0694 96.6371 74.0754 96.6313 74.0816 96.6252C74.118 96.5929 74.1552 96.5653 74.1925 96.5411C74.2302 96.5168 74.2679 96.4959 74.3068 96.4777C74.3448 96.4597 74.3861 96.4438 74.427 96.4308C74.4679 96.4176 74.5096 96.407 74.5522 96.3989C74.5948 96.3907 74.6391 96.385 74.6827 96.3817C74.7084 96.3795 74.7365 96.3791 74.7629 96.3794C74.782 96.3797 74.801 96.3803 74.8196 96.3809C74.8272 96.3811 74.8347 96.3813 74.8422 96.3815C74.8679 96.3821 74.8928 96.3822 74.9159 96.3803C74.9391 96.3784 74.9607 96.3746 74.9803 96.3678C75.0001 96.361 75.0179 96.3513 75.0342 96.3383C75.0514 96.3246 75.0646 96.3107 75.0796 96.2894C75.0893 96.2754 75.0986 96.2615 75.1078 96.2476C75.1215 96.2268 75.1348 96.2058 75.1478 96.1842C75.1608 96.1627 75.1733 96.141 75.1854 96.1187C75.1893 96.1116 75.1934 96.104 75.1971 96.0967C75.2089 96.0741 75.22 96.0513 75.2305 96.0277C75.2408 96.0041 75.2512 95.9797 75.2606 95.9545C75.27 95.9292 75.2786 95.9033 75.2866 95.876C75.3001 95.8294 75.3205 95.7999 75.3398 95.7769C75.3594 95.7539 75.3795 95.7358 75.3989 95.7183C75.4025 95.715 75.4062 95.7117 75.4098 95.7084C75.4253 95.6944 75.4411 95.6805 75.456 95.6659C75.4745 95.648 75.4917 95.6292 75.5081 95.6091C75.5244 95.5892 75.5399 95.5679 75.5539 95.5452C75.568 95.5223 75.5805 95.499 75.5926 95.4723C75.6048 95.446 75.6141 95.4156 75.625 95.3819C75.6356 95.3485 75.6465 95.314 75.6589 95.2818C75.6713 95.2495 75.6852 95.2192 75.7006 95.1922C75.7161 95.1651 75.7332 95.1407 75.7515 95.1191C75.77 95.0972 75.7906 95.0775 75.8118 95.0598C75.8331 95.0422 75.8562 95.0258 75.879 95.0121C75.9159 94.9899 75.953 94.9689 75.9906 94.9478C76.0286 94.9265 76.0667 94.9053 76.1048 94.8843C76.1427 94.8633 76.1805 94.8423 76.2182 94.8213C76.2563 94.7999 76.2949 94.778 76.3327 94.7561C76.3411 94.7513 76.3495 94.7464 76.3578 94.7415C76.3873 94.7244 76.4165 94.7071 76.4453 94.6897C76.4455 94.6896 76.4457 94.6895 76.4459 94.6894C76.483 94.6668 76.5202 94.6433 76.556 94.619C76.5691 94.61 76.5816 94.6012 76.5941 94.5921C76.6065 94.5829 76.6184 94.5736 76.6301 94.564C76.6418 94.5543 76.6531 94.5444 76.6637 94.5341C76.6743 94.5239 76.6847 94.5129 76.6943 94.5013C76.7031 94.4907 76.7111 94.4793 76.7197 94.467C76.7205 94.4659 76.7213 94.4648 76.7221 94.4636C76.7316 94.4501 76.7433 94.4359 76.7562 94.4247C76.7908 94.3954 76.8225 94.3655 76.853 94.3333C76.8842 94.3003 76.9133 94.266 76.9414 94.2308C76.9523 94.2171 76.9631 94.2032 76.9738 94.1893C76.9906 94.1677 77.0067 94.1465 77.0242 94.1242C77.0525 94.0881 77.0812 94.0529 77.1117 94.0192C77.1419 93.9858 77.1741 93.9539 77.2091 93.9229C77.2439 93.8922 77.2808 93.8632 77.3192 93.8363C77.3614 93.8072 77.4068 93.7756 77.4509 93.7459C77.4953 93.7157 77.5387 93.6876 77.5842 93.6561C77.6293 93.6253 77.6739 93.5949 77.7182 93.5647C77.7627 93.5344 77.8084 93.5017 77.8529 93.4707C77.8796 93.4518 77.9058 93.434 77.9328 93.4145C77.9311 93.3945 77.9291 93.3753 77.9272 93.3571C77.9119 93.2238 77.8972 93.1297 77.9048 93.028C77.9035 93.0173 77.8991 93.0069 77.8937 92.9945C77.8927 92.9921 77.8917 92.9897 77.8906 92.9871C77.884 92.9705 77.8775 92.9521 77.8777 92.9317C77.8785 92.8899 77.9031 92.8482 78.039 92.8301C78.073 92.8261 78.1998 92.8685 78.3222 92.9256C78.4081 92.9658 78.4685 93.0034 78.4846 93.0248C78.509 93.0092 78.5338 92.9942 78.5581 92.9794C78.5678 92.9735 78.5998 92.9775 78.6478 92.9905C78.6959 93.0036 78.7559 93.0245 78.8153 93.0494C78.8747 93.0742 78.9289 93.1011 78.9666 93.1249C79.0043 93.1487 79.0223 93.1673 79.0173 93.1766C79.0038 93.2013 78.9899 93.2263 78.9762 93.252C78.9626 93.2777 78.949 93.3046 78.9368 93.3293C78.9243 93.3547 78.912 93.3806 78.8997 93.4072C78.8875 93.4336 78.8747 93.4612 78.8627 93.488C78.8509 93.5143 78.8394 93.5406 78.8274 93.5677C78.8202 93.5839 78.8128 93.6005 78.8055 93.6169C78.8028 93.623 78.8003 93.629 78.7976 93.635C78.7954 93.64 78.7932 93.6449 78.7909 93.6499C78.7669 93.7038 78.7443 93.7547 78.7196 93.8085C78.6948 93.8625 78.67 93.9155 78.6449 93.9682C78.6198 94.0209 78.5926 94.0763 78.5664 94.1287C78.5404 94.1811 78.5133 94.2341 78.4851 94.2879C78.4564 94.3426 78.4297 94.3933 78.401 94.4468C78.379 94.4879 78.3569 94.5293 78.3345 94.571C78.334 94.593 78.3328 94.6145 78.3313 94.6356C78.3269 94.697 78.3297 94.7658 78.3314 94.8345C78.3729 94.7478 78.3899 94.6697 78.406 94.5939C78.4083 94.5837 78.4104 94.5735 78.4126 94.5634C78.4352 94.4596 78.4552 94.3691 78.5326 94.2717C78.7467 94.0014 78.8585 93.8341 78.9462 93.743C79.0353 93.6471 79.099 93.6255 79.2076 93.6207C79.3607 93.6148 79.4895 93.5194 79.5215 93.4519C79.5328 93.4284 79.6449 93.4533 79.7722 93.507C79.8996 93.5608 79.9931 93.6255 79.9806 93.6518C79.9436 93.7308 79.8029 93.8483 79.6167 93.8619C79.5349 93.8658 79.4746 93.8849 79.3821 93.9879C79.291 94.086 79.1724 94.2661 78.9443 94.5567C78.8649 94.6575 78.8422 94.749 78.8162 94.8565C78.8137 94.867 78.8113 94.8777 78.8087 94.8884C78.8087 94.8884 78.8086 94.8885 78.8086 94.8885C78.7853 94.9865 78.7601 95.0913 78.6871 95.2111C78.5265 95.4822 78.2933 95.8525 78.2546 95.9586C78.2472 95.9797 78.241 96.0012 78.2343 96.0238C78.207 96.1117 78.1791 96.2146 78.0397 96.3886C78.0087 96.427 77.9713 96.4663 77.9266 96.508C77.9024 96.6185 77.8726 96.7254 77.8357 96.8039C77.8042 96.8713 77.7924 96.9565 77.7838 97.0454C77.7814 97.071 77.7792 97.0974 77.7769 97.1238C77.7714 97.1873 77.7644 97.2516 77.7525 97.3059C77.7429 97.3492 77.7352 97.3982 77.7265 97.4501C77.6949 97.639 77.6464 97.8705 77.4611 97.9955C77.2616 98.1299 77.077 98.2077 76.9098 98.2717C77.0377 98.2355 77.1429 98.2173 77.2315 98.2034C77.2482 98.2008 77.2643 98.1983 77.2797 98.1959C77.388 98.1793 77.47 98.1638 77.5362 98.1185C77.8496 97.9022 77.9424 97.7755 77.9936 97.5838C78.0078 97.5324 78.0184 97.4699 78.0287 97.4029C78.05 97.2687 78.0675 97.1186 78.1199 96.9955C78.1688 96.8809 78.2049 96.7394 78.2402 96.5884C78.2403 96.5884 78.2403 96.5884 78.2404 96.5883C78.2474 96.5588 78.2543 96.5289 78.2611 96.4989C78.3022 96.3166 78.3415 96.1297 78.4001 95.9736C78.4063 95.957 78.4128 95.9362 78.42 95.9123C78.4633 95.7724 78.529 95.5339 78.7611 95.3724C78.8115 95.3377 78.8788 95.3104 78.9549 95.2785C78.9781 95.2688 79.0023 95.2588 79.0269 95.2479C79.132 95.202 79.2578 95.1332 79.3835 95.0169C79.4897 94.9173 79.5962 94.7852 79.7052 94.6382C79.7574 94.568 79.8113 94.4929 79.8642 94.4197C80.0235 94.1989 80.1764 93.9955 80.3206 93.7722C80.3206 93.7722 80.3206 93.7721 80.3207 93.7721C80.3374 93.7462 80.454 93.7691 80.5811 93.8232C80.7081 93.8773 80.7969 93.9445 80.7789 93.9733C80.6256 94.2173 80.4644 94.4362 80.2965 94.6719C80.2415 94.7491 80.185 94.8287 80.13 94.9033C80.0144 95.0609 79.9005 95.2036 79.7883 95.3108C79.6544 95.4375 79.5218 95.5131 79.4113 95.5643C79.3844 95.577 79.3587 95.5885 79.3342 95.5994C79.256 95.6342 79.1909 95.6618 79.1409 95.6974C78.9059 95.8656 78.8348 96.1035 78.7861 96.2494C78.7779 96.2748 78.7704 96.2972 78.7632 96.3155C78.7002 96.4743 78.6553 96.6646 78.6088 96.8521C78.6011 96.8826 78.5934 96.9131 78.5855 96.9434C78.5855 96.9435 78.5855 96.9436 78.5855 96.9437C78.5449 97.0997 78.5041 97.2475 78.4499 97.3681C78.3944 97.491 78.376 97.6294 78.3526 97.7622C78.3403 97.8333 78.3274 97.9018 78.3089 97.9635C78.2479 98.1726 78.1426 98.3084 77.8126 98.5358ZM78.4472 93.0492C78.3695 93.0688 78.3414 93.0969 78.3318 93.1263C78.3558 93.1095 78.3801 93.0931 78.4046 93.0772C78.4185 93.0681 78.4326 93.0591 78.4472 93.0492ZM77.5919 96.1361C77.5944 96.1231 77.5969 96.11 77.5993 96.0969C77.5801 96.1189 77.5606 96.1407 77.541 96.1624C77.5168 96.1891 77.4922 96.2155 77.4673 96.2418C77.5123 96.2063 77.5545 96.1708 77.5919 96.1361ZM77.1846 97.578C77.3506 97.4658 77.3893 97.2586 77.4162 97.0753C77.424 97.0224 77.431 96.9714 77.4401 96.9247C77.4439 96.9053 77.4466 96.8849 77.4492 96.8636C77.3762 96.9094 77.3076 96.9497 77.2508 96.9823C77.0796 97.0805 76.9665 97.1042 76.8652 97.1263C76.836 97.1325 76.8079 97.1385 76.7798 97.1455C76.77 97.1718 76.7587 97.1988 76.7469 97.2236C76.7303 97.2586 76.7105 97.2944 76.6903 97.3267C76.6701 97.3592 76.648 97.3904 76.625 97.4192C76.6017 97.4482 76.5773 97.4752 76.5521 97.5008C76.5284 97.5249 76.5034 97.548 76.4803 97.5695C76.479 97.5708 76.4776 97.572 76.4763 97.5732C76.4516 97.5962 76.4272 97.6184 76.4063 97.6416C76.3851 97.6654 76.369 97.6883 76.3582 97.7154C76.3447 97.7491 76.3299 97.7824 76.3142 97.8141C76.2986 97.8459 76.2821 97.8764 76.2648 97.9057C76.2473 97.9352 76.2302 97.963 76.2122 97.9901C76.2063 97.9989 76.2002 98.008 76.1943 98.0165C76.1915 98.0204 76.1889 98.0244 76.1861 98.0283C76.2365 98.0047 76.2892 97.9805 76.3451 97.9556C76.4253 97.9198 76.5149 97.8896 76.6126 97.8547C76.7811 97.794 76.9736 97.7202 77.1846 97.578ZM75.4277 98.4191C75.45 98.4089 75.4806 98.3924 75.5222 98.3699C75.5319 98.3646 75.5421 98.3588 75.5529 98.353C75.5526 98.3529 75.5523 98.3531 75.552 98.3531C75.5193 98.3528 75.4888 98.3533 75.458 98.3546C75.4026 98.3573 75.3495 98.3614 75.2965 98.3674C75.2434 98.3735 75.1911 98.3814 75.1394 98.3911C75.0878 98.4007 75.0355 98.4127 74.9869 98.4256C74.9373 98.4389 74.8889 98.4538 74.8406 98.4717C74.8253 98.4774 74.8099 98.4833 74.7946 98.4896C74.8335 98.4902 74.873 98.4881 74.9146 98.4856C74.9478 98.4836 74.9824 98.4814 75.0192 98.4801C75.0333 98.4795 75.0504 98.4803 75.0715 98.4808C75.1538 98.4829 75.2844 98.4852 75.4277 98.4191ZM74.4388 98.7409C74.428 98.7474 74.4172 98.7535 74.4064 98.759C74.3756 98.7748 74.3446 98.7873 74.3138 98.7986C74.2922 98.8065 74.2707 98.8137 74.2494 98.8209C74.2404 98.8239 74.2314 98.827 74.2225 98.83C74.2077 98.835 74.1926 98.8403 74.1785 98.8453C74.287 98.8339 74.3927 98.8178 74.4987 98.7915C74.5002 98.7912 74.5015 98.7907 74.5029 98.7903C74.481 98.7736 74.4596 98.7571 74.4388 98.7409ZM92.1535 22.3943C92.2548 22.5366 92.3179 22.6893 92.3946 22.8833C92.3946 22.8834 92.3947 22.8835 92.3948 22.8836C92.4057 22.9113 92.4168 22.94 92.4285 22.9695C92.5221 23.2084 92.6461 23.5135 92.8607 23.9536C93.0988 24.4428 93.1676 24.8871 93.162 25.179C93.1607 25.233 93.1703 25.2832 93.213 25.4014C93.2409 25.4789 93.2817 25.5823 93.3384 25.733C93.3685 25.8131 93.4033 25.9073 93.442 26.0171C93.5697 26.3769 93.8009 26.9352 93.9821 27.4599C94.0944 27.7823 94.1876 28.082 94.2489 28.3194C94.3389 28.6683 94.394 29.0005 94.4442 29.3732C94.4897 29.715 94.5272 30.0709 94.5719 30.4952C94.605 30.8147 94.5392 31.137 94.4532 31.4631C94.4422 31.5046 94.431 31.5464 94.4194 31.5868C94.3398 31.8675 94.2519 32.1519 94.2012 32.4574C94.1097 32.9889 94.1449 33.4248 94.1691 33.8909C94.1782 34.0755 94.1849 34.2691 94.1785 34.4804C94.1693 34.8106 94.1144 35.2781 94.0357 35.7511C94.0292 35.7905 94.0227 35.83 94.0159 35.8694C94.0159 35.8696 94.0158 35.8698 94.0158 35.87C93.9439 36.2912 93.8524 36.725 93.7976 37.022C93.7071 37.5063 93.6951 37.7013 93.6884 37.8633C93.6854 37.9249 93.6836 37.9777 93.6756 38.0422C93.6477 38.273 93.5456 38.6095 93.4302 38.9538C93.4298 38.9551 93.4294 38.9565 93.429 38.9578C93.4098 39.015 93.2874 39.027 93.1558 38.9844C93.0243 38.9418 92.9331 38.862 92.9517 38.8061C93.0115 38.6277 93.0669 38.4544 93.1097 38.2986C92.998 38.2574 92.9236 38.1911 92.9386 38.1419C92.9748 38.0201 93.001 37.6118 92.9954 36.9789C92.965 37.0149 92.9366 37.0444 92.9101 37.0698C92.8791 37.0996 92.853 37.1219 92.8307 37.141C92.7842 37.1808 92.7533 37.2073 92.7225 37.26C92.6714 37.3858 92.6132 37.5982 92.5521 37.8056C92.5364 37.8589 92.4157 37.872 92.2827 37.8346C92.1496 37.7971 92.0544 37.7245 92.0696 37.6725C92.0699 37.6715 92.0702 37.6705 92.0704 37.6694C92.1296 37.4691 92.1881 37.2551 92.2409 37.1272C92.2545 37.0943 92.2678 37.0665 92.2787 37.0457C92.2874 37.0292 92.2987 37.0086 92.3095 36.9983C92.311 36.9969 92.3138 36.9943 92.3179 36.9914C92.318 36.9913 92.3181 36.9913 92.3182 36.9912C92.3205 36.9896 92.332 36.9812 92.3545 36.9746C92.359 36.9732 92.3691 36.9704 92.3848 36.968C92.3863 36.9668 92.3878 36.9656 92.3892 36.9643C92.4094 36.9473 92.43 36.9298 92.4506 36.9105C92.5306 36.8339 92.6382 36.7143 92.7792 36.4292C92.9096 36.1597 93.0294 35.7112 93.1065 35.1084C93.0911 35.1473 93.076 35.1862 93.061 35.2252C93.0236 35.323 92.9871 35.4228 92.9511 35.5204C92.9375 35.557 92.924 35.5932 92.9103 35.6301C92.8883 35.6894 92.8662 35.749 92.844 35.8087C92.8291 35.849 92.8141 35.8895 92.7989 35.9299C92.7988 35.93 92.7988 35.9301 92.7988 35.9302C92.7777 35.9862 92.7562 36.0425 92.7341 36.0991C92.7261 36.1189 92.7183 36.1385 92.7105 36.1579C92.6797 36.2354 92.6491 36.3115 92.6012 36.3968C92.5941 36.4069 92.5853 36.4177 92.5782 36.4256C92.5707 36.4341 92.5631 36.4423 92.5556 36.4499C92.5489 36.4566 92.5422 36.463 92.5359 36.469C92.5351 36.4699 92.5343 36.4707 92.5334 36.4715C92.5264 36.4784 92.5199 36.4848 92.5138 36.4908C92.5076 36.4968 92.5017 36.5026 92.4964 36.5085C92.4964 36.5085 92.4963 36.5086 92.4963 36.5087C92.4909 36.5148 92.4867 36.5194 92.4817 36.5261C92.4754 36.5344 92.4704 36.5416 92.4651 36.5506C92.4599 36.5592 92.455 36.5683 92.4504 36.5776C92.4458 36.5869 92.4415 36.5964 92.4373 36.6062C92.4332 36.6159 92.4291 36.6258 92.4252 36.6359C92.4213 36.6459 92.4176 36.6562 92.4138 36.6664C92.4101 36.6767 92.4063 36.6872 92.4025 36.6976C92.3938 36.7218 92.3615 36.7396 92.3116 36.7468C92.2618 36.754 92.1988 36.75 92.136 36.7358C92.0731 36.7215 92.0149 36.6981 91.9734 36.6707C91.9319 36.6433 91.9108 36.6142 91.9138 36.5895C91.9146 36.5828 91.9154 36.576 91.9163 36.5693C91.9168 36.5653 91.9174 36.5612 91.9179 36.5572C91.9193 36.5463 91.9206 36.5353 91.9222 36.5244C91.9239 36.5134 91.9258 36.5024 91.9278 36.4913C91.9299 36.4802 91.9322 36.469 91.935 36.4577C91.9378 36.4465 91.941 36.4351 91.9449 36.4236C91.9487 36.4125 91.9538 36.3999 91.9592 36.3888C91.963 36.3807 91.9687 36.3711 91.9738 36.3627C91.9791 36.3539 91.9848 36.3453 91.9905 36.3371C91.9963 36.3288 92.0022 36.321 92.0078 36.3134C92.0084 36.3126 92.009 36.3118 92.0096 36.311C92.0145 36.3043 92.0193 36.2979 92.0236 36.2918C92.0285 36.2849 92.0328 36.2784 92.0366 36.2721C92.0408 36.2652 92.0428 36.2609 92.0451 36.2556C92.0676 36.1839 92.0835 36.0931 92.0979 36.0071C92.0997 35.9962 92.1015 35.9855 92.1033 35.9749C92.1125 35.9183 92.121 35.862 92.1293 35.8059C92.1352 35.7651 92.141 35.7244 92.1468 35.6837C92.1554 35.6238 92.1639 35.5639 92.1723 35.5043C92.1776 35.4673 92.1828 35.4311 92.1882 35.3943C92.2025 35.2957 92.2172 35.1963 92.2332 35.098C92.2492 34.9997 92.2665 34.9015 92.2867 34.804C92.3067 34.7069 92.3306 34.6067 92.3601 34.5109C92.382 34.4413 92.415 34.367 92.4479 34.2991C92.4656 34.2626 92.4833 34.2268 92.5008 34.1916C92.5009 34.1915 92.501 34.1913 92.5011 34.1912C92.5165 34.1603 92.5317 34.1297 92.5461 34.0993C92.5771 34.0341 92.6048 33.9697 92.6285 33.9052C92.6521 33.8407 92.6717 33.7762 92.6872 33.7111C92.7025 33.6466 92.7141 33.5808 92.7219 33.5157C92.7297 33.449 92.7339 33.3823 92.7353 33.3131C92.7369 33.2219 92.7337 33.1317 92.729 33.0396C92.7241 32.9481 92.7171 32.8565 92.7092 32.7651C92.7064 32.7331 92.7037 32.7012 92.7007 32.6693C92.7007 32.6692 92.7007 32.669 92.7007 32.6689C92.6952 32.6101 92.6892 32.5504 92.6831 32.4897C92.6737 32.3965 92.6638 32.3035 92.6543 32.2107C92.6448 32.1179 92.6355 32.025 92.628 31.9319C92.6205 31.8385 92.6144 31.7446 92.6144 31.6468C92.6141 31.5591 92.6154 31.4708 92.616 31.3847C92.6162 31.3619 92.6163 31.3392 92.6164 31.3165C92.6165 31.2088 92.6136 31.105 92.6026 31.0038C92.5917 30.9024 92.5731 30.8036 92.5471 30.7014C92.5213 30.6004 92.4891 30.4997 92.4525 30.3997C92.4157 30.2993 92.3752 30.2018 92.3314 30.1037C92.2879 30.0072 92.241 29.908 92.1916 29.81C92.1642 29.7554 92.1369 29.6973 92.1121 29.6424C92.0871 29.587 92.0633 29.532 92.0401 29.4779C92.0307 29.4559 92.0214 29.434 92.0121 29.4124C91.9985 29.3809 91.9851 29.3497 91.9714 29.3192C91.9483 29.2677 91.9246 29.2181 91.8989 29.1693C91.8733 29.1209 91.8459 29.0749 91.8157 29.0317C91.7843 28.987 91.7549 28.9513 91.7153 28.9103C91.6321 28.8067 91.5953 28.7394 91.554 28.6648C91.5459 28.6502 91.5374 28.6353 91.5285 28.6198C91.4802 28.5311 91.4351 28.4388 91.3933 28.3485C91.3511 28.2571 91.3122 28.1668 91.2751 28.0749C91.2382 27.9839 91.2036 27.8921 91.1708 27.7996C91.1376 27.7061 91.1064 27.6124 91.077 27.5177C91.0477 27.4231 91.0196 27.3259 90.9945 27.2319C90.9799 27.1775 90.9661 27.1192 90.9537 27.0644C90.9446 27.0245 90.9359 26.985 90.9273 26.9463C90.9237 26.9305 90.9202 26.9148 90.9167 26.8992C90.9044 26.8457 90.8918 26.794 90.8775 26.7449C90.8633 26.6958 90.8474 26.6493 90.8287 26.6053C90.81 26.5611 90.7885 26.5196 90.7637 26.4797C90.7378 26.4384 90.7138 26.4054 90.6796 26.3652C90.657 26.3387 90.6345 26.3129 90.612 26.2873C90.5783 26.2491 90.5445 26.2115 90.5099 26.1741C90.4753 26.1368 90.4407 26.1004 90.4052 26.0644C90.3938 26.0528 90.3818 26.0406 90.3702 26.0291C90.3345 25.9936 90.2985 25.959 90.2617 25.9252C90.2249 25.8914 90.1876 25.8587 90.1494 25.8269C90.1111 25.7951 90.0719 25.7635 90.031 25.7327C89.9614 25.6803 89.9094 25.6225 89.8665 25.5706C89.8233 25.5179 89.7861 25.4671 89.7498 25.4178C89.743 25.4085 89.7362 25.3993 89.7294 25.3901C89.7001 25.3504 89.6713 25.3114 89.6421 25.2737C89.606 25.2271 89.5686 25.1814 89.53 25.1371C89.4918 25.093 89.4518 25.0496 89.4106 25.0083C89.369 24.9666 89.3279 24.9279 89.2817 24.8876C89.2362 24.8477 89.186 24.8101 89.131 24.7694C89.0766 24.7292 89.0187 24.6857 88.9631 24.6412C88.9074 24.5967 88.8531 24.5502 88.802 24.5025C88.7507 24.4547 88.7018 24.4053 88.6558 24.3552C88.6095 24.3048 88.5658 24.2535 88.523 24.2002C88.4805 24.1474 88.4383 24.0917 88.4001 24.0386C88.3383 23.9527 88.2774 23.8669 88.2162 23.7814C88.156 23.697 88.0929 23.6095 88.0307 23.5242C87.9685 23.4387 87.9058 23.3537 87.8429 23.2695C87.7803 23.1855 87.7158 23.1006 87.6508 23.0164C87.6364 22.9978 87.622 22.9792 87.6076 22.9607C87.5569 22.8955 87.5058 22.8307 87.4545 22.7668C87.4542 22.7664 87.4539 22.7659 87.4535 22.7654C87.3875 22.6834 87.322 22.6034 87.2529 22.5227C87.2276 22.4932 87.2032 22.4651 87.1781 22.4369C87.153 22.4086 87.1281 22.3812 87.1026 22.354C87.077 22.3267 87.0512 22.3001 87.0254 22.2743C86.9993 22.2484 86.9734 22.2235 86.9465 22.1994C86.9218 22.177 86.897 22.1564 86.8688 22.1326C86.8662 22.1305 86.8637 22.1283 86.8611 22.1262C86.8304 22.1004 86.7965 22.0702 86.767 22.0401C86.6892 21.9601 86.6116 21.8847 86.531 21.8105C86.4508 21.7366 86.3677 21.6641 86.2822 21.5919C86.2489 21.5638 86.2152 21.536 86.1817 21.5082C86.1295 21.465 86.077 21.4222 86.0247 21.3793C85.9394 21.3094 85.8514 21.2367 85.7649 21.163C85.6788 21.0897 85.594 21.0149 85.5115 20.9392C85.4302 20.8643 85.3439 20.7828 85.2637 20.7037C85.1733 20.6146 85.0862 20.5276 84.9957 20.4387C84.9041 20.349 84.813 20.2602 84.7228 20.1731C84.6332 20.0863 84.5405 19.9983 84.4471 19.9109C84.3538 19.8236 84.2621 19.7383 84.1693 19.6535C84.1118 19.6014 84.0546 19.5498 83.9977 19.4989C83.9577 19.4878 83.9194 19.4777 83.8828 19.468C83.6174 19.4001 83.4107 19.3471 83.1773 19.2636C83.1528 19.257 83.1311 19.2549 83.1048 19.2525C83.0998 19.252 83.0946 19.2514 83.0892 19.2509C83.0551 19.2476 83.0167 19.2427 82.9688 19.2272C82.8722 19.1958 82.7485 19.126 82.6218 18.9332C82.5908 18.885 82.6209 18.7516 82.6894 18.6347C82.7375 18.5528 82.7924 18.5012 82.8324 18.4948C82.7846 18.4534 82.7377 18.4121 82.6913 18.3716C82.6728 18.3554 82.666 18.3179 82.6727 18.2665C82.6794 18.2151 82.6989 18.1541 82.7273 18.0964C82.7557 18.0386 82.791 17.9884 82.8262 17.9564C82.8613 17.9243 82.8934 17.9131 82.9153 17.9247C82.9734 17.9555 83.032 17.9871 83.0916 18.0188C83.1508 18.0504 83.2127 18.0829 83.2717 18.1138C83.3295 18.1441 83.3881 18.1745 83.4476 18.2054C83.5069 18.2362 83.567 18.2674 83.6279 18.2991C83.69 18.3315 83.7482 18.3615 83.8072 18.3924C83.8426 18.411 83.8787 18.4301 83.9143 18.4488C83.9276 18.4559 83.9406 18.4626 83.9536 18.4695C83.9643 18.4751 83.9749 18.4809 83.986 18.4868C84.1022 18.5485 84.2211 18.613 84.3336 18.6748C84.4482 18.7379 84.564 18.8031 84.681 18.8705C84.794 18.9352 84.9071 19.0013 85.0216 19.0698C85.1365 19.1386 85.2503 19.2081 85.3617 19.2771C85.4735 19.3464 85.5864 19.418 85.7 19.491C85.7869 19.5469 85.8707 19.6007 85.9566 19.6565C85.9963 19.6705 86.0353 19.685 86.0738 19.6998C86.185 19.7423 86.3067 19.7808 86.4209 19.8151C86.2504 19.7073 86.0973 19.6328 85.9559 19.5672C85.9369 19.5583 85.918 19.5496 85.8992 19.5409C85.7104 19.4544 85.5189 19.3605 85.3064 19.202C84.6863 18.7428 84.3181 18.5095 84.0896 18.3378C83.866 18.1712 83.7866 18.0747 83.7306 17.9364C83.6544 17.7423 83.4158 17.534 83.2745 17.463C83.2244 17.4374 83.2326 17.3162 83.2922 17.1915C83.3519 17.0669 83.4423 16.9866 83.4945 17.0131C83.6498 17.0911 83.9185 17.3165 84.0151 17.5517C84.0603 17.6576 84.1206 17.7413 84.3487 17.91C84.5805 18.0833 84.9566 18.3208 85.5945 18.7924C85.8049 18.9492 85.9929 19.0424 86.1844 19.1313C86.2035 19.1403 86.2227 19.1491 86.2421 19.1583C86.2422 19.1583 86.2423 19.1584 86.2424 19.1585C86.4201 19.2418 86.6213 19.3411 86.853 19.5034C87.4009 19.8826 88.1119 20.4225 88.3003 20.5399C88.3372 20.5621 88.3745 20.5831 88.4128 20.6046C88.559 20.6871 88.7391 20.787 89.0749 21.0896C89.1475 21.1552 89.229 21.236 89.3154 21.3275C89.4924 21.4212 89.6629 21.5193 89.7949 21.615C89.9095 21.6984 90.0373 21.7579 90.1671 21.813C90.2045 21.8288 90.2427 21.8445 90.2808 21.8603C90.3731 21.899 90.4639 21.9369 90.5455 21.981C90.6105 22.0161 90.6821 22.0507 90.7578 22.088C91.0335 22.2245 91.3651 22.3965 91.6206 22.7569C91.8908 23.1388 92.0827 23.4913 92.2382 23.7999C92.135 23.5686 92.0603 23.3802 92.0002 23.2251C91.9888 23.1958 91.9779 23.1676 91.9673 23.1406C91.8927 22.9497 91.836 22.8114 91.7443 22.6825C91.307 22.0747 91.0915 21.8816 90.8022 21.7142C90.7257 21.6707 90.6348 21.6271 90.5365 21.581C90.3402 21.4889 90.1165 21.3892 89.9161 21.2537C89.7269 21.1246 89.4999 20.9989 89.2601 20.874C89.26 20.8739 89.2599 20.8738 89.2598 20.8738C89.2132 20.8496 89.1649 20.8242 89.1166 20.7992C88.821 20.6452 88.5189 20.496 88.2408 20.3255C88.2113 20.3075 88.1751 20.287 88.1335 20.2637C87.8941 20.1302 87.4735 19.9023 87.0802 19.4824C86.9936 19.39 86.9146 19.2815 86.8237 19.1591C86.795 19.121 86.7652 19.0815 86.7337 19.0409C86.5962 18.865 86.4311 18.6659 86.1645 18.4315C85.951 18.2429 85.6639 18.0285 85.3711 17.8231C85.2211 17.7181 85.0689 17.6145 84.9217 17.5149C84.463 17.2061 84.0531 16.9327 83.6082 16.6684C83.6081 16.6683 83.608 16.6683 83.6079 16.6682C83.5567 16.6377 83.5649 16.5128 83.6258 16.3888C83.6867 16.2649 83.7791 16.1893 83.8324 16.2208C84.2929 16.493 84.7142 16.7731 85.1839 17.0885C85.333 17.1892 85.4881 17.2945 85.6415 17.4016C85.9436 17.6131 86.2419 17.8354 86.4631 18.0301C86.7417 18.274 86.914 18.4802 87.0577 18.6623C87.0917 18.7057 87.1244 18.748 87.1533 18.7866C87.2458 18.91 87.3221 19.0141 87.4064 19.1036C87.7973 19.519 88.2108 19.7457 88.4555 19.8836C88.499 19.9082 88.5373 19.9302 88.5691 19.9498C88.847 20.1216 89.1507 20.274 89.4511 20.4324C89.4997 20.4579 89.5486 20.4841 89.5962 20.5092C89.5963 20.5093 89.5964 20.5093 89.5965 20.5093C89.8406 20.6381 90.0758 20.77 90.2723 20.9054C90.4696 21.0404 90.6746 21.1327 90.8675 21.224C90.9707 21.2728 91.0711 21.3224 91.1618 21.3745C91.4741 21.5576 91.704 21.7691 92.1535 22.3943ZM82.907 18.5588C82.9959 18.6735 83.0728 18.7287 83.143 18.761C83.0929 18.7184 83.0435 18.6759 82.9947 18.6336C82.9662 18.6091 82.936 18.5837 82.907 18.5588ZM88.9575 21.6774C88.9365 21.6665 88.9154 21.6556 88.8941 21.6447C88.9389 21.6876 88.9833 21.731 89.0275 21.7746C89.0818 21.828 89.1363 21.8828 89.1893 21.9367C89.1108 21.845 89.0321 21.7567 88.9575 21.6774ZM91.2111 23.0451C90.9761 22.7138 90.6776 22.5615 90.4084 22.4299C90.3309 22.3923 90.2559 22.3565 90.1852 22.3189C90.1559 22.3034 90.1256 22.2888 90.0944 22.2747C90.1999 22.4181 90.2946 22.5528 90.3712 22.6642C90.5997 22.9974 90.6942 23.2061 90.7791 23.3923C90.8034 23.4461 90.8266 23.498 90.8511 23.5502C90.8912 23.5791 90.9322 23.6098 90.9717 23.6424C91.0271 23.6878 91.0849 23.7389 91.138 23.7891C91.1913 23.8395 91.2436 23.8924 91.293 23.946C91.3428 24 91.3902 24.0551 91.436 24.1111C91.4789 24.1634 91.5198 24.2159 91.5595 24.2673C91.5617 24.2703 91.564 24.2732 91.5663 24.2762C91.6081 24.3305 91.6486 24.3838 91.6884 24.4314C91.7291 24.4798 91.7659 24.5185 91.8051 24.5492C91.8541 24.5876 91.9028 24.6281 91.9498 24.6693C91.9969 24.7105 92.0425 24.7527 92.0862 24.7947C92.1302 24.837 92.1727 24.8798 92.2144 24.9234C92.2279 24.9375 92.2419 24.9524 92.2551 24.9665C92.2611 24.9731 92.2673 24.9796 92.2733 24.9861C92.221 24.8844 92.1669 24.7798 92.1106 24.6708C92.0287 24.5122 91.9479 24.3397 91.8557 24.1518C91.6988 23.8326 91.505 23.4607 91.2111 23.0451ZM93.0543 26.538C93.0341 26.4923 93.0026 26.4264 92.9612 26.3421C92.9514 26.3222 92.9409 26.3013 92.93 26.2793C92.9302 26.2799 92.9304 26.2805 92.9305 26.281C92.9428 26.3418 92.9544 26.3977 92.9683 26.4575C92.9931 26.564 93.0182 26.6671 93.0448 26.7707C93.0716 26.8747 93.0997 26.978 93.1289 27.081C93.1577 27.1827 93.188 27.2842 93.2195 27.3847C93.2513 27.486 93.2839 27.5858 93.3191 27.6861C93.3303 27.7181 93.3418 27.7501 93.3535 27.7821C93.342 27.7059 93.327 27.6278 93.3105 27.5456C93.2973 27.48 93.2833 27.4117 93.2693 27.3396C93.2639 27.312 93.2586 27.2781 93.2523 27.2387C93.2278 27.0841 93.1849 26.8335 93.0543 26.538ZM93.7273 28.5559C93.737 28.5791 93.7463 28.6023 93.755 28.6254C93.7796 28.6911 93.8007 28.7567 93.8197 28.8193C93.833 28.8636 93.8455 28.9077 93.8578 28.9512C93.863 28.9696 93.8682 28.9879 93.8733 29.0061C93.8819 29.0366 93.8905 29.0669 93.899 29.097C93.864 28.8804 93.8226 28.6701 93.7661 28.4513C93.7654 28.4484 93.7645 28.4456 93.7637 28.4427C93.7515 28.4814 93.7393 28.5191 93.7273 28.5559ZM28.7511 10.3517C28.6726 10.416 28.5769 10.4497 28.4547 10.495C28.4546 10.4951 28.4546 10.4951 28.4545 10.4951C28.4372 10.5015 28.4187 10.5085 28.4007 10.5151C28.2554 10.5691 28.0653 10.6499 27.8226 10.8217C27.5565 11.0099 27.2702 11.093 27.062 11.1099C27.023 11.1132 26.9911 11.1253 26.9262 11.1726C26.8838 11.2034 26.8279 11.2491 26.7498 11.3139C26.7086 11.348 26.6607 11.3881 26.6042 11.4354C26.4157 11.5931 26.165 11.8786 25.94 12.1541C25.8041 12.32 25.6805 12.4772 25.5795 12.5963C25.4305 12.7723 25.2817 12.9224 25.1149 13.0987C24.9609 13.262 24.8059 13.4285 24.6356 13.6458C24.504 13.8141 24.3108 13.9189 24.1004 14.0333C24.0738 14.0477 24.0469 14.0622 24.0199 14.0768C23.8327 14.1796 23.6462 14.2809 23.4873 14.4267C23.2029 14.6897 23.0951 14.9636 22.9779 15.2744C22.9318 15.3967 22.8863 15.5214 22.83 15.6522C22.7413 15.8577 22.5847 16.1535 22.4397 16.4401C22.4271 16.4648 22.4147 16.4897 22.4022 16.5146C22.4022 16.5147 22.4021 16.5148 22.4021 16.5149C22.2672 16.7828 22.1394 17.0509 22.0627 17.2504C21.94 17.5702 21.9263 17.7101 21.9163 17.8207C21.9127 17.8623 21.9094 17.901 21.9011 17.9452C21.8711 18.1046 21.7752 18.3258 21.6803 18.5557C21.6799 18.5566 21.6796 18.5575 21.6793 18.5583C21.6635 18.5964 21.5461 18.5874 21.417 18.538C21.2879 18.4886 21.1961 18.4168 21.2121 18.3779C21.2633 18.254 21.3138 18.1344 21.3546 18.0262C21.2465 17.9766 21.1747 17.914 21.1896 17.8795C21.2274 17.7929 21.2491 17.4965 21.2994 17.0178C21.267 17.0376 21.2372 17.0532 21.2097 17.0662C21.1773 17.0815 21.1506 17.0925 21.1276 17.102C21.0797 17.1218 21.048 17.1352 21.0145 17.1689C20.9557 17.2556 20.8893 17.402 20.8227 17.5538C20.8057 17.5923 20.6885 17.5814 20.5605 17.5292C20.4326 17.4769 20.3427 17.4025 20.3599 17.3631C20.3602 17.3624 20.3605 17.3616 20.3609 17.3608C20.4279 17.2079 20.4975 17.0537 20.5601 16.9617C20.576 16.9383 20.5913 16.919 20.6037 16.9049C20.6136 16.8936 20.6264 16.8798 20.6378 16.8739C20.6393 16.8732 20.6423 16.8717 20.6466 16.8703C20.6467 16.8703 20.6468 16.8703 20.6469 16.8703C20.6492 16.8695 20.6612 16.8654 20.6834 16.8652C20.6879 16.8651 20.6979 16.8651 20.7133 16.8668C20.7148 16.8662 20.7164 16.8655 20.7179 16.8649C20.739 16.856 20.7606 16.8469 20.7822 16.8365C20.867 16.7958 20.9827 16.723 21.1525 16.547C21.3099 16.383 21.494 16.0662 21.6959 15.6673C21.6729 15.69 21.6497 15.7138 21.6276 15.7364C21.5721 15.7933 21.5183 15.8521 21.4656 15.912C21.4454 15.935 21.4256 15.9577 21.4057 15.9811C21.3735 16.0187 21.3415 16.0568 21.3098 16.0952C21.2884 16.1211 21.2671 16.1473 21.2458 16.1735C21.2458 16.1736 21.2458 16.1736 21.2457 16.1737C21.2162 16.2101 21.1865 16.2467 21.1565 16.2838C21.1457 16.2966 21.1352 16.3094 21.1249 16.3221C21.0837 16.3728 21.0431 16.4235 20.9869 16.4742C20.9788 16.4798 20.9691 16.4856 20.9613 16.4897C20.9531 16.4941 20.9448 16.4982 20.9367 16.502C20.9295 16.5053 20.9223 16.5083 20.9156 16.5113C20.9147 16.5117 20.9138 16.5121 20.9129 16.5125C20.9054 16.5158 20.8983 16.519 20.8916 16.5222C20.8849 16.5253 20.8785 16.5284 20.8726 16.5316C20.8726 16.5317 20.8726 16.5317 20.8726 16.5317C20.8665 16.5351 20.8619 16.5377 20.8563 16.5417C20.8492 16.5466 20.8434 16.5511 20.8372 16.5568C20.8311 16.5622 20.8252 16.5682 20.8196 16.5743C20.8141 16.5805 20.8087 16.587 20.8035 16.5936C20.7983 16.6002 20.7932 16.6071 20.7882 16.614C20.7833 16.621 20.7785 16.6282 20.7736 16.6354C20.7688 16.6426 20.7639 16.6499 20.7591 16.6573C20.7479 16.6742 20.7148 16.6806 20.666 16.6745C20.6172 16.6684 20.557 16.6505 20.4981 16.6244C20.4391 16.5983 20.3857 16.5659 20.3491 16.5338C20.3125 16.5018 20.2959 16.4729 20.302 16.4533C20.3037 16.448 20.3053 16.4426 20.307 16.4372C20.308 16.4341 20.3092 16.4309 20.3102 16.4277C20.313 16.4191 20.3158 16.4104 20.3188 16.4017C20.3219 16.3931 20.3253 16.3845 20.3288 16.3759C20.3323 16.3673 20.3361 16.3586 20.3404 16.35C20.3447 16.3415 20.3494 16.3329 20.3549 16.3245C20.3601 16.3162 20.3668 16.3072 20.3737 16.2994C20.3786 16.2937 20.3855 16.2871 20.3916 16.2817C20.3979 16.2761 20.4045 16.2708 20.4111 16.2658C20.4178 16.2607 20.4246 16.256 20.431 16.2515C20.4317 16.251 20.4323 16.2506 20.433 16.2501C20.4387 16.2461 20.4442 16.2423 20.4492 16.2386C20.4549 16.2344 20.4599 16.2304 20.4644 16.2264C20.4695 16.2221 20.472 16.2192 20.475 16.2157C20.5065 16.166 20.5372 16.0954 20.566 16.0302C20.5696 16.0219 20.5733 16.0138 20.5769 16.0057C20.5957 15.9626 20.6143 15.9196 20.6329 15.8768C20.6465 15.8456 20.66 15.8145 20.6738 15.7835C20.694 15.7379 20.7147 15.6924 20.7356 15.6472C20.7487 15.6192 20.7617 15.5918 20.775 15.5641C20.8099 15.4917 20.8461 15.4201 20.8846 15.3498C20.9241 15.2777 20.9661 15.2063 21.0115 15.1372C21.0567 15.0684 21.1075 14.9992 21.1631 14.9365C21.2043 14.8905 21.256 14.8487 21.3064 14.8118C21.3335 14.7919 21.3605 14.7729 21.3873 14.7543C21.3875 14.7543 21.3876 14.7542 21.3877 14.7542C21.4112 14.7378 21.4345 14.7218 21.4571 14.7058C21.5053 14.6721 21.5523 14.6349 21.5953 14.5978C21.6384 14.5605 21.6782 14.5219 21.715 14.4815C21.7515 14.4413 21.7855 14.3989 21.8163 14.3556C21.8473 14.3121 21.8751 14.268 21.9021 14.2207C21.9375 14.1583 21.9693 14.0947 22.0015 14.0294C22.0332 13.9646 22.0662 13.8957 22.0985 13.8286C22.1098 13.805 22.1213 13.7816 22.1327 13.758C22.1327 13.7579 22.1328 13.7578 22.1328 13.7577C22.1539 13.7141 22.1751 13.6706 22.1965 13.6272C22.2296 13.5603 22.2632 13.4937 22.2982 13.428C22.3334 13.3619 22.3691 13.2979 22.409 13.2325C22.4492 13.167 22.4925 13.1014 22.5422 13.0401C22.5864 12.9852 22.633 12.9316 22.6786 12.8797C22.6907 12.866 22.7028 12.8523 22.7148 12.8386C22.772 12.7738 22.8257 12.7106 22.873 12.6445C22.921 12.5777 22.9646 12.5058 23.0035 12.4313C23.0424 12.3569 23.0778 12.2789 23.1111 12.1989C23.1446 12.1185 23.1753 12.0377 23.2056 11.9545C23.2353 11.8724 23.267 11.7852 23.2971 11.6987C23.314 11.6504 23.3339 11.6005 23.3539 11.5543C23.374 11.5077 23.3952 11.4623 23.4168 11.418C23.4255 11.4001 23.4343 11.3823 23.4431 11.3646C23.4558 11.3389 23.4685 11.3135 23.4807 11.2883C23.5015 11.2456 23.5206 11.2042 23.5386 11.1614C23.5567 11.1184 23.5725 11.0753 23.585 11.0314C23.5978 10.986 23.6056 10.9463 23.6118 10.8962C23.6374 10.7826 23.6662 10.7228 23.6981 10.6564C23.7044 10.6433 23.7107 10.6299 23.7172 10.6159C23.757 10.5369 23.7991 10.4639 23.8471 10.3903C23.8951 10.3169 23.9452 10.2473 23.9985 10.1797C24.0514 10.1127 24.1073 10.0481 24.1653 9.98623C24.2233 9.9243 24.2824 9.8663 24.3473 9.80733C24.4113 9.74917 24.479 9.69269 24.5461 9.64113C24.5848 9.6113 24.6274 9.58133 24.6677 9.55444C24.6968 9.53503 24.7258 9.51637 24.7542 9.49822C24.7658 9.4908 24.7774 9.48346 24.7888 9.47618C24.8282 9.45097 24.8656 9.42694 24.9019 9.40078C24.9378 9.37502 24.9712 9.34888 25.0014 9.32115C25.0318 9.29338 25.0591 9.264 25.0841 9.23228C25.1098 9.19929 25.1293 9.17011 25.1516 9.13014C25.1661 9.10403 25.1801 9.07832 25.1941 9.05272C25.215 9.01438 25.2356 8.97617 25.2562 8.93749C25.2767 8.89884 25.2965 8.86064 25.3175 8.82065C25.3242 8.80789 25.3312 8.79443 25.3378 8.78155C25.3582 8.74178 25.378 8.70211 25.3972 8.66191C25.4164 8.62179 25.435 8.5815 25.4527 8.54063C25.4706 8.49959 25.4875 8.45855 25.5041 8.4159C25.5322 8.34331 25.5709 8.28674 25.607 8.23995C25.6436 8.19287 25.6828 8.15015 25.72 8.10992C25.727 8.10235 25.734 8.09479 25.741 8.08723C25.7713 8.0548 25.8011 8.0232 25.83 7.99152C25.8656 7.95249 25.8997 7.91341 25.9331 7.87334C25.9662 7.83364 25.9988 7.79269 26.0297 7.75105C26.0605 7.70928 26.0905 7.66716 26.1217 7.6204C26.1527 7.57429 26.1812 7.5241 26.2128 7.46943C26.2441 7.41522 26.2774 7.35892 26.3133 7.30466C26.3491 7.25039 26.3875 7.1979 26.4279 7.14894C26.468 7.1001 26.5136 7.05168 26.5588 7.00784C26.6046 6.96352 26.6519 6.92222 26.7004 6.88333C26.7488 6.84452 26.8002 6.80678 26.8495 6.77349C26.9285 6.72012 27.0113 6.66689 27.0944 6.61512C27.177 6.56372 27.2601 6.51375 27.343 6.46525C27.4257 6.4169 27.5085 6.36974 27.5945 6.32173C27.6797 6.27423 27.7648 6.22798 27.8496 6.18295C27.8683 6.17299 27.8871 6.16308 27.9058 6.15322C27.9717 6.11852 28.0372 6.08465 28.1052 6.04953C28.1056 6.04933 28.1061 6.04912 28.1066 6.04892C28.1932 6.00422 28.2779 5.96137 28.3624 5.91812C28.3935 5.90219 28.4232 5.88699 28.4532 5.87132C28.4832 5.85564 28.5124 5.84011 28.5417 5.82423C28.5715 5.80801 28.6018 5.79113 28.6308 5.77437C28.6602 5.75736 28.6885 5.74043 28.7166 5.72257C28.7423 5.70625 28.7673 5.68915 28.7947 5.67071C28.7972 5.66902 28.7997 5.66734 28.8022 5.66566C28.8321 5.64548 28.8668 5.62397 28.9005 5.60683C28.9896 5.56197 29.0763 5.51698 29.1662 5.46893C29.2555 5.42126 29.3433 5.37315 29.4311 5.32506C29.4655 5.30625 29.4993 5.28754 29.5342 5.26865C29.5897 5.23865 29.6452 5.20901 29.7009 5.18019C29.7925 5.13273 29.8845 5.08775 29.9777 5.04635C30.0721 5.00441 30.1716 4.96445 30.2693 4.93007C30.3683 4.8951 30.4633 4.86644 30.568 4.83797C30.6821 4.80746 30.795 4.78066 30.9072 4.75629C31.018 4.73251 31.1384 4.70744 31.2516 4.68713C31.3659 4.66643 31.4792 4.64805 31.5975 4.63011C31.7151 4.61243 31.827 4.59867 31.9453 4.58499C32.0167 4.57662 32.0875 4.56933 32.1575 4.56297C32.1894 4.54165 32.2199 4.52115 32.2493 4.50174C32.4743 4.35662 32.6337 4.25753 32.8772 4.16484C32.8995 4.15396 32.9168 4.14156 32.938 4.12662C32.942 4.12377 32.9463 4.12087 32.9507 4.11782C32.9784 4.09855 33.0102 4.07791 33.0571 4.05996C33.1582 4.02289 33.3094 3.99925 33.5318 4.08662C33.5886 4.10866 33.6378 4.23693 33.6439 4.37224C33.6482 4.46716 33.631 4.5403 33.6022 4.56786C33.6636 4.5757 33.7239 4.58513 33.7829 4.59528C33.8065 4.59936 33.8312 4.62797 33.8512 4.67556C33.8712 4.72317 33.885 4.78559 33.8902 4.84974C33.8954 4.91392 33.8917 4.97497 33.8804 5.02035C33.869 5.06569 33.8509 5.09158 33.8294 5.09299C33.7723 5.09661 33.7145 5.101 33.6558 5.1071C33.5951 5.11347 33.5428 5.12018 33.4866 5.12862C33.431 5.13699 33.3747 5.14678 33.3175 5.15781C33.2588 5.16918 33.2077 5.18003 33.1528 5.19263C33.0981 5.20516 33.0439 5.21867 32.9883 5.2331C32.9554 5.24167 32.9196 5.2511 32.8893 5.25964C32.8776 5.26287 32.8662 5.26625 32.8547 5.26952C32.8454 5.27219 32.8359 5.27481 32.8262 5.27759C32.7247 5.30698 32.6163 5.34052 32.5155 5.37428C32.4154 5.40777 32.314 5.44357 32.2112 5.48173C32.11 5.51943 32.0141 5.55739 31.9138 5.59834C31.8126 5.63962 31.7171 5.6807 31.6205 5.72384C31.525 5.76654 31.423 5.81335 31.331 5.85833C31.2586 5.8936 31.1865 5.93003 31.114 5.96788C31.0892 5.99199 31.0644 6.01543 31.0399 6.03841C30.968 6.10552 30.9069 6.18059 30.8437 6.25696C30.9771 6.17415 31.0799 6.09367 31.1808 6.01707C31.1942 6.00686 31.2075 5.99671 31.2208 5.98671C31.3542 5.88564 31.4933 5.79181 31.6971 5.72802C32.282 5.5467 32.6325 5.47865 32.857 5.45625C33.0772 5.43661 33.1876 5.46399 33.2885 5.5405C33.4394 5.64668 33.6746 5.68508 33.7983 5.67277C33.8417 5.66819 33.8887 5.77649 33.9043 5.91381C33.9199 6.05118 33.9015 6.16537 33.8619 6.16947C33.742 6.18104 33.501 6.14264 33.3331 6.01477C33.2606 5.95731 33.1732 5.92719 32.9679 5.94386C32.7572 5.96359 32.4269 6.02664 31.8634 6.20033C31.6748 6.25907 31.5455 6.34701 31.4192 6.44456C31.4066 6.45423 31.3939 6.46416 31.3811 6.4741C31.381 6.47413 31.381 6.47417 31.3809 6.47421C31.2609 6.56672 31.138 6.66614 30.9542 6.76997C30.5331 7.00455 29.9989 7.39001 29.8968 7.50609C29.8756 7.52905 29.8558 7.55265 29.835 7.57756C29.7543 7.67399 29.6589 7.78772 29.4089 7.98206C29.3543 8.02463 29.2855 8.07283 29.2145 8.12049C29.1406 8.24736 29.0683 8.36947 28.9962 8.46239C28.9328 8.54343 28.8965 8.63961 28.8639 8.74076C28.8547 8.7698 28.8458 8.79965 28.837 8.82944C28.8158 8.90128 28.7949 8.97325 28.7693 9.03593C28.7492 9.0857 28.7295 9.14264 28.712 9.20062C28.647 9.41297 28.5669 9.67206 28.3539 9.84404C28.1241 10.0298 27.9129 10.1707 27.7288 10.2941C27.8721 10.2121 27.9911 10.1627 28.0911 10.1245C28.1104 10.1169 28.129 10.1098 28.1468 10.103C28.2728 10.055 28.3635 10.0223 28.4387 9.96064C28.8013 9.66599 28.9155 9.53473 29.0082 9.31658C29.0324 9.25963 29.0551 9.19094 29.0799 9.11719C29.1292 8.9701 29.1887 8.80144 29.2876 8.66403C29.3792 8.53642 29.4686 8.38045 29.5744 8.21221C29.5744 8.21217 29.5745 8.21214 29.5745 8.2121C29.5948 8.17947 29.6154 8.14657 29.6363 8.1136C29.7606 7.91423 29.9095 7.70502 30.0689 7.54127C30.0861 7.52364 30.1054 7.50186 30.1297 7.47575C30.266 7.3271 30.5124 7.06648 30.912 6.9648C31.0017 6.94157 31.1014 6.9348 31.2131 6.92951C31.2471 6.9279 31.2823 6.92657 31.3186 6.92483C31.4795 6.9157 31.6657 6.90134 31.9033 6.84965C32.0976 6.80775 32.3305 6.7414 32.5668 6.6845C32.6885 6.6548 32.8057 6.62901 32.925 6.60686C33.2835 6.54064 33.621 6.51764 33.9383 6.52253C33.9384 6.52252 33.9384 6.52252 33.9385 6.52251C33.9763 6.52308 34.017 6.63572 34.031 6.77317C34.0448 6.91056 34.0298 7.0207 33.9958 7.01974C33.706 7.01159 33.3897 7.03006 33.0508 7.0913C32.9396 7.11146 32.8289 7.13547 32.7135 7.16328C32.4872 7.21703 32.2613 7.28078 32.0728 7.32037C31.8413 7.36921 31.6566 7.38195 31.4999 7.38867C31.4629 7.39004 31.4276 7.39112 31.394 7.39235C31.2868 7.39632 31.196 7.40133 31.1137 7.42213C30.7401 7.51472 30.5118 7.7601 30.3806 7.90574C30.357 7.93179 30.3367 7.95439 30.3195 7.97245C30.1699 8.12916 30.0283 8.33168 29.9102 8.52688C29.8905 8.55885 29.871 8.59078 29.8517 8.62265C29.8517 8.62276 29.8517 8.62286 29.8517 8.62297C29.7511 8.78771 29.6631 8.94416 29.5741 9.07116C29.4834 9.20037 29.4317 9.35146 29.3876 9.49113C29.3636 9.56637 29.3407 9.63887 29.3139 9.70432C29.22 9.93207 29.1038 10.0649 28.7511 10.3517ZM33.5071 4.55697C33.3834 4.51188 33.2838 4.5157 33.2122 4.533C33.2763 4.53581 33.3395 4.54015 33.4017 4.54582C33.4372 4.54904 33.4723 4.55275 33.5071 4.55697ZM28.9355 7.70507C28.9448 7.68947 28.9542 7.67375 28.9636 7.65798C28.9275 7.68552 28.8911 7.71307 28.8548 7.74083C28.8103 7.77492 28.7655 7.80916 28.7208 7.84373C28.7966 7.79571 28.8691 7.74929 28.9355 7.70507ZM28.0417 9.45256C28.2482 9.28588 28.3273 9.04369 28.3961 8.82975C28.416 8.76812 28.4365 8.70783 28.4604 8.65148C28.4703 8.62817 28.4793 8.60377 28.4881 8.57856C28.3795 8.64636 28.283 8.70683 28.2032 8.75758C27.965 8.90965 27.8104 8.97787 27.6773 9.03582C27.6385 9.05289 27.6012 9.06958 27.5639 9.08782C27.5484 9.12196 27.5319 9.15687 27.5139 9.19052C27.4888 9.23779 27.4602 9.28712 27.4318 9.33274C27.4045 9.37761 27.3755 9.4218 27.3458 9.4638C27.3158 9.50616 27.2848 9.54679 27.2532 9.58642C27.2234 9.62373 27.1929 9.66012 27.1634 9.69553C27.1617 9.69755 27.16 9.69957 27.1583 9.7016C27.1272 9.73908 27.0969 9.77569 27.0714 9.81202C27.0457 9.84886 27.0279 9.8814 27.0167 9.91647C27.0029 9.9601 26.9878 10.0038 26.972 10.0461C26.9563 10.0885 26.9398 10.1298 26.9227 10.1702C26.9055 10.2107 26.8879 10.2501 26.8697 10.2891C26.8638 10.3017 26.8576 10.3148 26.8517 10.3272C26.8489 10.3329 26.8462 10.3386 26.8435 10.3443C26.9015 10.2918 26.9624 10.2386 27.0263 10.1855C27.1191 10.1083 27.2218 10.0375 27.3418 9.95576C27.5442 9.81863 27.7762 9.66712 28.0417 9.45256ZM26.0487 11.2086C26.0708 11.183 26.1017 11.1441 26.1418 11.0945C26.1512 11.0828 26.1611 11.0703 26.1716 11.0574C26.1712 11.0576 26.1709 11.0579 26.1706 11.0581C26.133 11.0791 26.0988 11.0991 26.063 11.1221C25.9994 11.1632 25.939 11.2053 25.8797 11.25C25.8196 11.2957 25.7648 11.3398 25.7099 11.3879C25.6552 11.4357 25.6023 11.4859 25.5518 11.5379C25.5007 11.5904 25.4522 11.6442 25.4057 11.7011C25.391 11.7192 25.3763 11.7378 25.3621 11.7564C25.4056 11.7246 25.4489 11.6901 25.4946 11.6541C25.531 11.6253 25.5691 11.5955 25.6101 11.5654C25.6258 11.5539 25.6457 11.5409 25.6691 11.5259C25.7621 11.4655 25.904 11.3764 26.0487 11.2086ZM25.1014 12.2886C25.0934 12.3039 25.0852 12.3189 25.0767 12.3335C25.0524 12.3753 25.0277 12.4129 25.0028 12.4496C24.9853 12.4754 24.9675 12.5006 24.9502 12.5256C24.9428 12.5362 24.9356 12.5468 24.9283 12.5573C24.9162 12.5748 24.9044 12.5924 24.8928 12.61C24.9949 12.5022 25.0915 12.3984 25.1904 12.2815C25.1917 12.28 25.1929 12.2784 25.1942 12.2768C25.1626 12.2808 25.1317 12.2847 25.1014 12.2886ZM86.8143 71.7368C87.202 69.7738 87.6002 67.9404 88.1032 65.625C88.1035 65.6237 88.1037 65.6225 88.104 65.6212C88.1758 65.2904 88.25 64.9495 88.3264 64.5972C88.8638 62.1197 89.5369 58.9935 90.4582 54.5305L90.4437 54.6142C90.5656 53.8466 90.7476 53.1136 90.9794 52.3533C91.9296 49.3348 93.4746 46.5979 95.9831 45.0375C96.4901 44.745 97.2523 43.6891 97.7159 42.8786C98.21 42.0308 98.5908 41.2045 98.8854 40.5036C99.0864 40.0073 99.2999 39.499 99.6577 38.1399C99.8826 37.2436 100.158 36.0314 100.31 34.2412C100.386 33.295 100.422 32.178 100.33 30.8923C100.241 26.6058 97.3453 20.0823 91.9899 16.6737C91.0954 16.0552 90.1838 15.5113 89.2322 15.0112C86.8628 13.7665 84.6168 12.7249 82.7652 11.9131C78.9564 10.2475 75.2023 8.81528 71.0507 7.46293C67.2468 6.23177 63.1059 5.06273 58.2446 4.04957C54.5108 3.2776 50.8796 2.6121 47.1381 2.15873C46.6617 2.10138 46.1944 2.0486 45.7089 1.99869C42.411 1.66401 39.0053 1.49158 35.3703 1.79172C33.3436 1.96447 31.461 2.27631 29.7061 2.75866C25.8564 3.8248 22.6082 5.76979 20.1157 8.73846C18.707 10.4244 17.5562 12.4437 16.7846 14.799C15.6402 18.1875 15.0923 23.7238 17.4277 28.3843C17.4943 28.5097 17.5165 28.7978 17.4761 28.9339C17.3515 29.3349 17.2267 29.7366 17.1018 30.1384C16.9534 30.6157 16.805 31.0938 16.6568 31.5705C16.6561 31.5729 16.6553 31.5753 16.6546 31.5777C15.0601 36.7072 13.4952 41.7415 12.3608 45.4393C10.5581 51.3152 9.91215 53.5361 9.37354 55.3884C9.17107 56.0847 8.98373 56.7293 8.75569 57.4963C7.93437 60.2589 6.64098 64.4126 5.32995 68.6231C5.32497 68.6392 5.31998 68.6553 5.315 68.6713C5.09743 69.3701 4.81473 69.9009 4.6837 69.8567C4.55269 69.8124 4.62283 69.2099 4.84043 68.5111C5.53488 66.2808 6.21249 64.1045 6.8143 62.1544C6.73215 62.0182 6.80892 61.4666 7.00474 60.8377C7.49494 59.2633 8.90415 54.4127 11.1038 46.8193C10.9229 47.3301 10.7685 47.757 10.6318 48.1307C10.4713 48.5693 10.3462 48.9046 10.2387 49.193C10.0148 49.794 9.8659 50.1939 9.62537 50.9112C9.08794 52.5786 8.26918 55.2072 7.40785 57.9734C7.19033 58.6719 6.90781 59.2028 6.77678 59.1588C6.64581 59.1145 6.71604 58.5118 6.93351 57.8132C6.93774 57.7995 6.94197 57.7859 6.94621 57.7722C7.79929 55.0325 8.64416 52.3194 9.20598 50.5777C9.34892 50.1346 9.47369 49.7535 9.56834 49.4676C9.64401 49.2391 9.73895 48.9539 9.79611 48.7968C9.8037 48.776 9.81829 48.7362 9.8364 48.6891C9.83673 48.6883 9.83706 48.6875 9.83738 48.6867C9.84748 48.6603 9.899 48.5256 9.96385 48.385C9.97695 48.3566 10.0057 48.2949 10.043 48.2245C10.05 48.2055 10.0571 48.1866 10.0642 48.1676C10.1626 47.9033 10.263 47.6337 10.37 47.3413C10.7878 46.1996 11.4306 44.3855 12.6939 40.5843C13.5868 37.8975 14.9008 33.7688 16.5052 28.6331L16.5243 28.8502C15.7701 27.3775 15.2585 25.6831 14.9927 23.8732C15.0604 24.4063 15.1501 24.9314 15.2647 25.4544C15.5233 26.6308 15.9057 27.7927 16.4489 28.8891L16.4241 28.6079C16.3804 28.7416 16.3366 28.8753 16.2928 29.009C16.1344 29.493 15.9782 29.9706 15.8193 30.4573C15.5634 31.2408 15.3071 32.0265 15.0511 32.8121C14.8781 33.3429 14.7049 33.8749 14.5319 34.4062C14.5315 34.4074 14.5312 34.4086 14.5308 34.4098C14.2906 35.1473 14.0498 35.8866 13.8069 36.6316C13.7216 36.8923 13.6375 37.1498 13.554 37.4056C13.2218 38.4237 12.8956 39.4239 12.5084 40.5717C12.46 40.7109 12.4065 40.8618 12.366 40.9743C12.3226 41.0952 12.2805 41.2114 12.2404 41.3212C12.2049 41.4181 12.1708 41.5103 12.1383 41.5988C12.1339 41.6107 12.1295 41.6225 12.1252 41.6344C12.0887 41.7334 12.0541 41.8282 12.0208 41.9192C11.9876 42.0101 11.9557 42.0977 11.9247 42.1841C11.9245 42.1849 11.9242 42.1857 11.924 42.1865C11.8917 42.2769 11.8672 42.3454 11.8337 42.4414C11.7918 42.5619 11.7561 42.6655 11.7136 42.7914C11.6724 42.9131 11.63 43.0401 11.5875 43.1686C11.545 43.297 11.5021 43.4279 11.4588 43.5608C11.4155 43.6938 11.3716 43.8291 11.3275 43.9655C11.2835 44.1018 11.2392 44.24 11.1946 44.3789C11.15 44.5179 11.1049 44.6584 11.0596 44.7996C10.9555 45.1247 10.8321 45.4291 10.716 45.6446C10.6 45.8601 10.5009 45.9694 10.4398 45.9489C10.3787 45.9282 10.3601 45.779 10.3875 45.5336C10.415 45.2881 10.4865 44.9663 10.5853 44.6394C10.6122 44.5504 10.6392 44.461 10.6664 44.3712C10.6825 44.3179 10.6989 44.2641 10.7151 44.2105C10.7588 44.0665 10.8028 43.9208 10.8474 43.7745C10.892 43.6282 10.9372 43.4806 10.9831 43.3315C11.0291 43.182 11.076 43.0304 11.124 42.8769C11.1718 42.7238 11.2211 42.5674 11.2719 42.4087C11.3213 42.2539 11.3785 42.0775 11.4304 41.92C11.4683 41.8048 11.516 41.6633 11.556 41.5453C11.5977 41.4221 11.6392 41.3011 11.6795 41.1844C11.7199 41.0676 11.7593 40.9547 11.7969 40.8468C11.8009 40.8353 11.8049 40.8238 11.8089 40.8122C11.8421 40.7169 11.8743 40.6249 11.9044 40.5379C11.9381 40.4406 11.9697 40.3484 11.9995 40.2607C12.0323 40.1642 12.0517 40.1054 12.0754 40.0332C12.3803 39.0762 12.7461 37.8898 13.095 36.7586C13.1389 36.6164 13.1826 36.4751 13.2257 36.3352C13.4547 35.5922 13.6829 34.8505 13.911 34.1094C14.0768 33.5707 14.2427 33.0315 14.4089 32.4915C14.6536 31.6971 14.8993 30.9002 15.145 30.1043C15.2977 29.61 15.4476 29.1249 15.6002 28.6318C15.6265 28.5469 15.6528 28.462 15.6791 28.3771L15.7556 29.2466C15.1262 28.0246 14.6888 26.7288 14.3956 25.413C14.0832 24.0052 13.9359 22.5632 13.936 21.1251C13.9353 19.692 14.0902 18.208 14.3893 16.8063C14.6075 15.7757 14.923 14.7408 15.2859 13.8089C15.4791 13.3114 15.6905 12.8258 15.9141 12.3621C15.9148 12.3605 15.9156 12.359 15.9164 12.3574C16.1139 11.9478 16.3218 11.5519 16.541 11.1648C17.0112 10.3353 17.5286 9.5556 18.0979 8.81326C18.6644 8.07484 19.2843 7.37364 19.9456 6.72315C20.6078 6.07128 21.3193 5.46264 22.0697 4.90522C22.8164 4.35117 23.5886 3.85321 24.4324 3.38613C25.5413 2.77351 26.6799 2.26686 27.8985 1.83803C28.3617 1.6752 28.8327 1.52524 29.3213 1.38571C30.0531 1.17625 30.83 0.989462 31.5824 0.836312C32.0222 0.746652 32.4626 0.666305 32.8981 0.594472C32.8998 0.594202 32.9015 0.593932 32.9032 0.593662C33.725 0.458529 34.5281 0.353021 35.3612 0.266752C36.6176 0.136828 37.8944 0.058133 39.1741 0.0226266C40.4455 -0.012674 41.7327 -0.00561399 43.018 0.0385094C44.3055 0.0827334 45.6263 0.165587 46.9436 0.2868C48.1245 0.395103 49.3021 0.530375 50.4606 0.684611C50.7633 0.724937 51.067 0.766833 51.3715 0.810276C52.8193 1.01678 54.2089 1.2447 55.5799 1.48751C56.9537 1.73122 58.3203 1.99282 59.6943 2.27493C61.0675 2.55695 62.4519 2.86089 63.8421 3.1877C65.2406 3.51662 66.615 3.86081 68.0119 4.23353C69.3993 4.60376 70.7866 4.99657 72.1855 5.41711C72.962 5.65047 73.7882 5.90995 74.5632 6.16318C75.3456 6.41867 76.1243 6.68288 76.8854 6.94988C77.1945 7.05831 77.5041 7.16849 77.8093 7.27836C78.255 7.43879 78.6939 7.59972 79.1264 7.76068C79.8598 8.03372 80.5671 8.30389 81.2564 8.5722C81.9482 8.84154 82.6103 9.10402 83.2555 9.36255C83.9248 9.63107 84.4696 9.85113 85.1262 10.1185C86.7199 10.7853 87.6924 11.2408 88.7597 11.7528C88.9724 11.8553 89.189 11.9604 89.4135 12.0705C89.7773 12.2496 90.1379 12.4305 90.4951 12.6131C91.4591 13.1075 92.3405 13.6186 93.228 14.205C94.4472 15.0108 95.6197 15.935 96.6778 16.9543C97.7517 17.9888 98.7079 19.1115 99.5503 20.3565C100.386 21.5921 101.078 22.9066 101.623 24.2983C102.168 25.6851 102.558 27.148 102.789 28.5818C102.925 29.4081 103.014 30.2892 103.051 31.1113C103.079 31.6969 103.084 32.2903 103.069 32.8544C103.063 33.0872 103.053 33.3211 103.041 33.5495C102.999 34.3332 102.921 35.0995 102.819 35.832C102.716 36.5622 102.587 37.2719 102.441 37.9475C102.292 38.6391 102.125 39.3003 101.935 39.9574C101.735 40.644 101.555 41.2024 101.292 41.9186C101.124 42.3746 100.937 42.8362 100.739 43.2792C100.437 43.9541 100.118 44.5874 99.7145 45.2516C99.3115 45.9017 98.8965 46.5169 98.2424 47.1453C98.0794 47.3 97.8491 47.4912 97.6289 47.6341C97.6025 47.6518 97.5765 47.6698 97.5508 47.6879C97.1235 47.9884 96.7331 48.3661 96.3801 48.7972C96.0275 49.2278 95.715 49.7074 95.4386 50.2151C95.1612 50.7254 94.9223 51.2579 94.7119 51.8165C94.354 52.7681 94.0874 53.7227 93.9264 54.5421C93.887 54.7429 93.854 54.9367 93.829 55.1181C93.8265 55.1337 93.8188 55.1806 93.8155 55.1961C93.6855 55.8855 93.5593 56.5446 93.4357 57.1903C93.4051 57.3498 93.3746 57.5093 93.344 57.6688C93.2123 58.3558 93.0826 59.0315 92.9558 59.6972C92.7995 60.5177 92.6473 61.3234 92.4959 62.1321C92.3459 62.9337 92.1958 63.7436 92.0498 64.5415C91.9026 65.3469 91.7632 66.1173 91.615 66.9479C91.4683 67.7694 91.3238 68.6046 91.1653 69.52C91.0082 70.4271 90.8429 71.3789 90.6724 72.3422C90.5022 73.3045 90.3262 74.2815 90.148 75.2508C89.9695 76.222 89.787 77.1959 89.6042 78.1555C89.4204 79.1204 89.2347 80.0789 89.0478 81.032C88.8613 81.983 88.6663 82.9649 88.4817 83.8835C88.1828 85.3709 87.8837 86.8513 87.5835 88.3343C87.2849 89.809 86.9847 91.2883 86.6848 92.7643C86.534 93.5063 86.383 94.2487 86.232 94.9909L86.2589 94.812C86.1616 95.6896 86.0481 96.4042 85.8317 97.2955C85.4272 98.9311 84.6994 100.718 83.3021 102.135C83 102.442 82.6648 102.731 82.3145 102.987C81.087 103.891 79.6138 104.387 78.3013 104.608C78.2919 104.61 78.2825 104.611 78.2731 104.613C76.5569 104.902 74.875 104.846 73.3384 104.702C72.7278 104.643 72.2221 104.579 71.6586 104.498C71.0905 104.416 70.5605 104.327 70.0286 104.231C69.4983 104.134 68.9211 104.02 68.43 103.918C67.9137 103.81 67.3997 103.697 66.87 103.577C66.4028 103.47 65.9549 103.366 65.4432 103.242C65.3966 103.231 65.3501 103.22 65.3034 103.209C64.7335 103.07 64.1193 102.914 63.545 102.761C61.9834 102.344 60.5237 101.931 59.0194 101.498C57.5135 101.063 56.0395 100.628 54.5075 100.174C53.9149 99.998 53.3477 99.8295 52.7537 99.6526C51.8267 99.3765 50.91 99.1029 49.9957 98.8303C48.4529 98.3701 46.982 97.9316 45.4203 97.4684C43.9314 97.0267 42.3392 96.557 40.8535 96.1226C39.3326 95.678 37.7902 95.2317 36.2756 94.7995C34.5411 94.3051 32.9275 93.8531 31.1908 93.3806C29.5423 92.9311 27.7748 92.4635 26.1268 92.0398C24.4343 91.6048 22.7269 91.18 21.0359 90.7736C19.3087 90.359 17.6468 89.9733 15.9201 89.5887C14.8742 89.3559 13.8851 89.1404 12.8566 88.9221C12.3113 88.8255 11.7853 88.7341 11.2767 88.6468C11.0228 88.6033 10.773 88.5607 10.5268 88.5191C6.97103 87.8539 3.7433 86.6847 1.49034 83.1139C1.27053 82.7471 1.10925 82.4455 0.931791 82.0638C0.8983 81.9913 0.863843 81.914 0.829759 81.8349C0.615265 81.3328 0.398958 80.7404 0.224587 79.9017C-0.134675 78.2354 -0.160503 75.6047 0.888504 72.662C1.1517 71.9196 1.46519 71.507 1.52974 71.711C1.57812 71.8515 1.49939 72.2622 1.37359 72.7404C1.66556 71.8688 2.01866 71.0247 2.43312 70.2098C2.59884 69.884 2.78495 69.6007 2.95134 69.4047C3.11482 69.2142 3.23126 69.1451 3.27622 69.1949C3.32132 69.2457 3.29179 69.4118 3.1984 69.6726C3.10829 69.927 2.9659 70.253 2.81425 70.5705C2.40618 71.4235 2.06702 72.3042 1.7979 73.2046C1.52891 74.107 1.33036 75.0298 1.22096 75.9731C1.11216 76.9157 1.09351 77.8772 1.20165 78.8394C1.30908 79.7968 1.54604 80.7548 1.94057 81.6568C2.33636 82.5644 2.88169 83.3917 3.55509 84.1118C3.96282 84.5486 4.41138 84.9395 4.87729 85.2803C5.05467 85.4101 5.22823 85.5283 5.40295 85.6404C5.54678 85.7327 5.69525 85.8234 5.85254 85.9141C7.3555 86.7796 9.0357 87.2961 10.7005 87.6087C10.8142 87.63 10.9277 87.6514 11.0409 87.6727C12.7972 88.0041 14.4631 88.3331 16.2081 88.6934C17.9421 89.0517 19.619 89.4127 21.3534 89.8013C23.0518 90.1817 24.774 90.5825 26.4727 90.9917C28.1348 91.3915 29.9036 91.8323 31.5601 92.2568C32.8982 92.5999 34.1849 92.9368 35.4761 93.2812C35.9991 93.4104 36.5122 93.5389 37.0145 93.6658C38.4606 94.0306 39.9474 94.4042 41.3787 94.7692C38.8181 94.0569 36.7807 93.5268 34.8037 93.025C34.5442 92.9593 34.2854 92.8941 34.0263 92.829C31.3585 92.1596 28.7646 91.5233 25.3363 90.6842C18.9146 89.1192 14.2436 88.1649 10.7261 87.4745C8.79619 87.0987 7.28122 86.518 6.1201 85.8581C2.78194 83.8494 2.28223 81.847 1.89559 80.4489C1.24979 78.322 1.88976 74.2222 2.68857 72.3531C2.94151 71.6578 3.29646 71.1631 3.41881 71.2258C3.54423 71.2858 3.39912 71.8627 3.15498 72.5358C2.33507 74.4505 1.66362 78.7841 2.62316 81.108C3.02236 82.0514 3.32761 83.6031 6.46388 85.4765C7.55242 86.0806 8.98018 86.624 10.8199 86.9827C14.3198 87.6698 18.9972 88.6236 25.4785 90.2034C28.7872 91.0136 31.2807 91.6235 33.9325 92.2874C34.19 92.3519 34.4483 92.4168 34.7078 92.4824C34.7094 92.4828 34.7111 92.4832 34.7127 92.4837C37.1385 93.0978 39.7736 93.785 43.2889 94.7867C51.4019 97.1145 62.3201 100.367 64.9245 100.905C65.4382 101.027 65.9566 101.145 66.4744 101.259C68.4961 101.6 70.9276 102.539 76.4539 102.478C77.6276 102.402 79.0588 102.185 80.3315 101.462C82.2559 100.326 83.0873 98.1712 83.4319 96.3096C83.5446 95.7168 83.6114 95.16 83.6579 94.5432C83.659 94.5309 83.6648 94.4945 83.667 94.4824C83.8385 93.4583 83.9943 92.4735 84.144 91.5078C84.2119 91.0695 84.2796 90.6283 84.3472 90.1878C84.5103 89.1254 84.6734 88.0626 84.8416 87.0288C84.9757 86.2046 85.1118 85.3408 85.2555 84.4277C85.7793 81.1018 86.4069 77.1162 87.4266 71.9625C88.5076 66.4992 89.4631 61.8278 90.2905 57.7995C89.6712 60.7555 89.1796 63.0348 88.7678 64.9331C88.6902 65.2912 88.6157 65.6343 88.5439 65.9646C88.0372 68.2975 87.6688 69.9935 87.3084 71.8181C85.587 80.5328 84.9806 83.8093 84.3697 87.5208C84.2089 88.4979 84.0388 89.5773 83.8554 90.7402C83.6747 91.886 83.4812 93.1131 83.2712 94.4039C83.2675 94.4234 83.2583 94.4819 83.2565 94.5017C83.1601 95.8288 82.9698 97.0749 82.4549 98.3212C81.6173 100.619 79.1987 102.109 76.0806 102.211C76.0794 102.211 76.0783 102.211 76.0771 102.211C75.5179 102.248 74.848 102.25 74.2642 102.229C70.4551 102.067 66.4972 101.151 62.6394 100.178C62.2397 100.076 61.7548 99.9521 61.1859 99.8035C57.9135 98.9608 52.2485 97.3406 45.3177 95.2139C43.82 94.7561 42.2181 94.2534 40.431 93.7033C39.8852 93.5353 39.2853 93.3525 38.7081 93.1775C36.1649 92.4089 32.9775 91.4717 28.8043 90.3822C25.3548 89.4816 21.0504 88.4465 16.6409 87.5029C14.7302 87.0936 12.8812 86.7152 10.943 86.3377C10.6286 86.2764 10.3257 86.2096 10.034 86.1375C6.86217 85.3963 4.04081 83.5676 3.06406 80.7648C2.05574 77.9917 2.59305 74.8562 3.69726 72.1243C3.69771 72.1232 3.69816 72.1221 3.69861 72.1209C3.96523 71.4693 4.31864 71.0318 4.4295 71.117C4.54342 71.1992 4.38461 71.7572 4.13132 72.3871C1.64167 77.6995 3.4819 84.5589 10.1971 85.662C10.4663 85.7278 10.7461 85.7892 11.0368 85.8458C12.9649 86.2214 14.8163 86.6 16.7344 87.0109C21.1738 87.9605 25.5417 89.0112 29.0307 89.9234C33.2794 91.0339 36.536 91.9936 39.1049 92.7719C39.7355 92.963 40.3388 93.1476 40.8974 93.3199C42.6539 93.8621 44.1758 94.3405 45.589 94.7728C52.3118 96.8362 57.7456 98.39 61.0271 99.2415C61.6144 99.3958 62.119 99.5259 62.543 99.6349C66.2802 100.584 70.2042 101.499 73.931 101.708C74.5159 101.738 75.1277 101.747 75.698 101.724C75.6992 101.724 75.7003 101.724 75.7015 101.724C78.7375 101.666 81.0321 100.468 81.8982 98.3371C82.4508 97.1136 82.6571 95.7949 82.75 94.4494C82.7527 94.4202 82.7664 94.3337 82.7718 94.3049C82.9349 93.294 83.0876 92.3242 83.2361 91.3818C83.4258 90.1777 83.6086 89.018 83.7969 87.8743C84.4449 83.9369 85.0873 80.4796 86.8143 71.7368ZM0.975206 74.1084C0.48435 75.9477 0.429987 77.5658 0.556574 78.7638C0.469684 77.7427 0.516196 76.7351 0.654003 75.7552C0.732769 75.1965 0.841299 74.6484 0.975206 74.1084ZM80.7649 101.787C80.5259 101.943 80.2722 102.086 80.0045 102.215C80.7485 101.878 81.4118 101.422 81.9725 100.843C82.6556 100.144 83.174 99.2502 83.5179 98.3659C82.956 99.8132 81.9783 101.062 80.7649 101.787ZM87.9203 72.0475C86.9586 76.9078 86.3818 80.5679 85.8618 83.8685C85.712 84.8189 85.5667 85.7406 85.4185 86.6516C85.357 87.0293 85.297 87.4071 85.2372 87.788C85.6813 85.5886 86.0905 83.5671 86.4256 81.9122C87.4255 76.9742 88.025 74.1699 88.5518 71.7056C88.7042 70.9926 88.8507 70.3073 88.9989 69.6078C89.0974 69.0243 89.2005 68.4185 89.3069 67.8068C89.4557 66.9503 89.6189 66.0249 89.7763 65.1446C89.9341 64.2611 90.0966 63.3636 90.2583 62.4825C90.4213 61.5941 90.5848 60.7143 90.7489 59.8387C90.9032 59.0148 91.0584 58.1941 91.2085 57.3998C91.2171 57.3544 91.2257 57.3089 91.2343 57.2634C91.393 56.424 91.5474 55.6074 91.6859 54.8564C91.6909 54.8297 91.6958 54.8032 91.7006 54.7768L91.6965 54.8007C91.8042 54.0327 91.9537 53.4102 92.0946 52.8555C92.2788 52.1408 92.5137 51.4166 92.7959 50.7167C93.0785 50.0164 93.4102 49.3329 93.8057 48.6797C94.2024 48.0257 94.6601 47.4049 95.2073 46.8425C95.3839 46.661 95.5788 46.4782 95.7733 46.3137C95.8628 46.238 95.9544 46.1638 96.0477 46.0921C94.7862 47.0258 93.8414 48.3238 93.1104 49.7282C92.3424 51.2319 91.7488 52.8714 91.4274 54.7607L91.4338 54.7239C91.3034 55.3594 91.1697 56.0097 91.0326 56.6765C90.1513 60.9638 89.1298 65.9345 87.9203 72.0475ZM100.238 27.0818C100.394 27.6479 100.603 28.4837 100.762 29.5846C100.799 29.8456 100.834 30.1206 100.864 30.408C100.863 30.4012 100.863 30.3943 100.862 30.3875C100.803 29.6726 100.714 29.0089 100.58 28.3036C100.341 27.049 99.9834 25.843 99.5075 24.687C99.0279 23.5219 98.425 22.4072 97.7148 21.3678C96.9944 20.3139 96.1845 19.3583 95.2729 18.466C94.3722 17.5848 93.3846 16.7825 92.3353 16.0609C92.0054 15.8339 91.6629 15.6105 91.3087 15.3916C92.0899 15.893 92.846 16.429 93.6198 17.0578C94.2259 17.551 94.848 18.1091 95.4524 18.7304C95.6862 18.9707 95.9562 19.2613 96.2574 19.6124C97.449 21.0119 99.2149 23.4057 100.238 27.0818ZM81.9954 10.9656C81.718 10.8512 81.4413 10.7381 81.167 10.6267C80.3834 10.3084 79.6241 10.0069 78.8715 9.7157C78.3416 9.51061 77.8223 9.31336 77.3054 9.12107C77.0874 9.03999 76.8692 8.95961 76.6527 8.88049C76.2888 8.74755 75.9315 8.61918 75.5732 8.49233C78.0755 9.40626 80.4943 10.3716 82.977 11.4595C83.0098 11.4739 83.0428 11.4882 83.0758 11.5027C82.7096 11.3181 82.3452 11.1373 81.9954 10.9656Z" fill="#EDE1CB"/>
</svg>
