<svg width="939" height="261" viewBox="0 0 939 261" fill="none" xmlns="http://www.w3.org/2000/svg">
<path d="M90.2344 27.002C101.628 27.6855 111.198 28.2552 118.945 28.7109C126.921 28.9388 133.529 29.1667 138.77 29.3945C144.694 29.6224 149.707 29.6224 153.809 29.3945C157.91 29.1667 163.493 28.597 170.557 27.6855C176.481 27.002 184.342 25.9766 194.141 24.6094C204.167 23.0143 216.585 20.9635 231.396 18.457C226.156 23.6979 222.054 28.4831 219.092 32.8125C216.357 36.9141 214.193 40.446 212.598 43.4082C210.775 47.054 209.521 50.1302 208.838 52.6367C208.382 54.9154 208.838 60.612 210.205 69.7266C211.572 78.8411 213.509 89.6647 216.016 102.197C218.522 114.502 221.257 127.718 224.219 141.846C227.181 155.745 230.143 168.848 233.105 181.152C236.068 193.229 238.688 203.597 240.967 212.256C243.473 220.687 245.296 225.7 246.436 227.295C249.854 232.08 252.018 235.27 252.93 236.865C253.841 238.232 255.436 239.486 257.715 240.625C258.626 241.081 260.107 241.764 262.158 242.676C263.981 243.587 266.374 244.727 269.336 246.094C272.526 247.461 276.514 249.056 281.299 250.879C272.412 251.335 264.779 251.676 258.398 251.904C252.018 251.904 246.777 252.018 242.676 252.246C237.891 252.474 233.789 252.702 230.371 252.93C226.953 252.93 222.852 253.158 218.066 253.613C213.965 254.069 208.61 254.525 202.002 254.98C195.622 255.436 188.102 255.892 179.443 256.348C184.001 253.158 187.646 250.309 190.381 247.803C193.343 245.068 195.622 242.79 197.217 240.967C199.04 238.688 200.293 236.637 200.977 234.814C201.432 232.764 201.774 229.688 202.002 225.586C202.23 221.94 202.23 217.155 202.002 211.23C201.774 205.078 201.204 197.103 200.293 187.305L110.4 196.533C108.122 200.407 106.413 203.825 105.273 206.787C104.134 209.521 103.337 211.914 102.881 213.965C102.197 216.471 101.969 218.522 102.197 220.117C102.653 221.94 103.451 224.105 104.59 226.611C105.729 228.89 107.324 231.624 109.375 234.814C111.654 237.777 114.958 241.309 119.287 245.41C113.59 245.182 107.78 245.068 101.855 245.068C95.931 245.068 90.4622 245.182 85.4492 245.41C79.5247 245.638 73.7142 245.866 68.0176 246.094C62.321 246.322 55.8268 246.663 48.5352 247.119C42.3828 247.575 35.2051 248.145 27.002 248.828C18.571 249.284 9.57031 249.967 0 250.879C5.92448 248.145 10.9375 245.41 15.0391 242.676C19.1406 239.714 22.5586 236.979 25.293 234.473C28.4831 231.738 31.2174 229.118 33.4961 226.611C35.0911 224.333 38.2812 219.092 43.0664 210.889C47.8516 202.458 53.2064 192.546 59.1309 181.152C65.2832 169.759 71.6634 157.568 78.2715 144.58C85.1074 131.592 91.2598 119.401 96.7285 108.008C102.197 96.3867 106.641 86.3607 110.059 77.9297C113.477 69.4987 115.186 64.0299 115.186 61.5234C114.73 58.5612 113.59 55.2572 111.768 51.6113C110.173 48.4212 107.666 44.7754 104.248 40.6738C101.058 36.5723 96.3867 32.015 90.2344 27.002ZM196.191 162.012C194.824 154.036 193.571 147.201 192.432 141.504C191.292 135.579 190.381 130.68 189.697 126.807C188.786 122.249 188.102 118.262 187.646 114.844C186.963 111.654 186.165 107.552 185.254 102.539C184.342 98.2096 183.203 92.8548 181.836 86.4746C180.697 79.8665 179.215 72.0052 177.393 62.8906C164.404 88.8672 154.264 109.033 146.973 123.389C139.909 137.516 134.782 147.884 131.592 154.492C127.718 162.24 125.553 166.797 125.098 168.164L196.191 162.012ZM251.221 8.88672C258.512 10.026 265.12 11.0514 271.045 11.9629C276.969 12.6465 282.096 13.2161 286.426 13.6719C291.439 14.3555 295.882 14.9251 299.756 15.3809C304.541 16.0645 311.719 15.2669 321.289 12.9883C330.859 10.4818 341.341 8.20312 352.734 6.15234C364.355 3.8737 376.204 2.62044 388.281 2.39258C400.358 1.93685 411.41 4.10156 421.436 8.88672C431.462 13.6719 439.665 18.457 446.045 23.2422C452.425 28.0273 457.438 33.1543 461.084 38.623C464.958 43.8639 467.692 49.4466 469.287 55.3711C470.882 61.2956 471.794 67.7897 472.021 74.8535C471.794 85.3353 469.287 95.4753 464.502 105.273C462.451 109.375 459.717 113.704 456.299 118.262C453.109 122.591 449.121 126.807 444.336 130.908C439.551 135.01 433.854 138.883 427.246 142.529C420.866 146.175 413.346 149.365 404.688 152.1C413.118 154.606 420.068 157.568 425.537 160.986C431.234 164.404 435.791 167.594 439.209 170.557C443.311 174.202 446.387 177.734 448.438 181.152C450.944 185.938 452.653 190.039 453.564 193.457C454.476 196.875 455.046 200.179 455.273 203.369C455.729 206.331 456.299 209.408 456.982 212.598C457.666 215.788 459.147 219.434 461.426 223.535C463.249 226.725 465.413 230.029 467.92 233.447C470.199 236.41 472.819 239.6 475.781 243.018C478.971 246.436 482.845 249.74 487.402 252.93C481.022 253.158 475.098 253.271 469.629 253.271C464.388 253.271 459.831 253.271 455.957 253.271C451.4 253.271 447.07 253.158 442.969 252.93C438.867 252.702 433.74 252.588 427.588 252.588C422.347 252.588 415.625 252.588 407.422 252.588C399.447 252.588 389.762 252.702 378.369 252.93C383.382 249.056 387.484 245.182 390.674 241.309C393.864 237.435 396.37 233.903 398.193 230.713C400.244 227.067 401.725 223.535 402.637 220.117C403.776 213.965 403.89 207.585 402.979 200.977C402.295 195.28 400.472 189.014 397.51 182.178C394.548 175.114 389.762 168.05 383.154 160.986C376.546 162.126 370.964 163.037 366.406 163.721C362.077 164.176 358.317 164.632 355.127 165.088C351.481 165.544 348.519 165.885 346.24 166.113C344.189 166.341 341.911 166.569 339.404 166.797C337.354 167.025 335.075 167.367 332.568 167.822C330.29 168.05 328.125 168.392 326.074 168.848C325.618 178.646 325.618 187.191 326.074 194.482C326.53 201.546 327.1 207.471 327.783 212.256C328.695 217.952 329.72 222.852 330.859 226.953C331.999 231.055 333.594 235.042 335.645 238.916C337.24 242.106 339.29 245.524 341.797 249.17C344.303 252.588 347.152 255.436 350.342 257.715C344.417 257.715 338.721 257.715 333.252 257.715C328.011 257.715 323.226 257.601 318.896 257.373C313.883 257.373 309.098 257.259 304.541 257.031C299.984 256.803 294.857 256.689 289.16 256.689C284.375 256.689 278.678 256.689 272.07 256.689C265.69 256.689 258.74 256.803 251.221 257.031C257.145 250.879 261.816 245.638 265.234 241.309C268.652 236.979 271.273 233.333 273.096 230.371C275.146 227.181 276.4 224.447 276.855 222.168C277.311 218.522 277.653 212.028 277.881 202.686C278.337 193.115 278.678 182.178 278.906 169.873C279.134 157.568 279.248 144.694 279.248 131.25C279.248 117.806 279.134 105.273 278.906 93.6523C278.678 81.8034 278.451 71.6634 278.223 63.2324C277.995 54.8014 277.767 49.4466 277.539 47.168C276.855 43.0664 275.374 38.9648 273.096 34.8633C271.273 31.2174 268.652 27.1159 265.234 22.5586C261.816 18.0013 257.145 13.444 251.221 8.88672ZM380.42 129.199C382.699 127.832 384.635 126.465 386.23 125.098C387.826 123.73 389.193 121.566 390.332 118.604C391.471 115.413 392.383 110.97 393.066 105.273C393.978 99.5768 395.003 91.8294 396.143 82.0312C397.054 72.2331 396.37 64.1439 394.092 57.7637C392.041 51.3835 389.193 46.3704 385.547 42.7246C382.129 38.8509 378.255 36.2305 373.926 34.8633C369.824 33.2682 366.178 32.4707 362.988 32.4707C356.608 32.4707 350.342 34.4076 344.189 38.2812C338.037 42.1549 333.366 47.3958 330.176 54.0039C329.036 56.9661 328.011 61.8652 327.1 68.7012C326.416 74.6257 325.96 82.8288 325.732 93.3105C325.505 103.792 325.846 117.578 326.758 134.668C335.417 136.035 343.05 136.605 349.658 136.377C356.266 135.921 361.849 135.124 366.406 133.984C371.875 132.845 376.546 131.25 380.42 129.199ZM488.428 14.3555C496.175 15.4948 503.011 16.2923 508.936 16.748C515.088 17.2038 520.215 17.6595 524.316 18.1152C529.102 18.571 533.203 18.7988 536.621 18.7988H549.951C558.838 18.7988 573.535 18.457 594.043 17.7734C589.03 19.3685 584.814 21.6471 581.396 24.6094C578.206 27.5716 575.586 30.6478 573.535 33.8379C571.029 37.4837 569.206 41.2435 568.066 45.1172C566.699 49.9023 565.446 56.2826 564.307 64.2578C563.167 71.3216 562.028 80.5501 560.889 91.9434C559.977 103.337 559.066 117.578 558.154 134.668C567.952 123.503 576.497 113.59 583.789 104.932C591.309 96.2728 597.803 88.6393 603.271 82.0312C608.74 75.4232 613.298 69.7266 616.943 64.9414C620.817 60.1562 624.007 56.0547 626.514 52.6367C632.438 44.8893 635.856 39.6484 636.768 36.9141C636.995 35.319 636.882 33.3822 636.426 31.1035C635.97 29.2806 635.286 27.1159 634.375 24.6094C633.464 21.875 632.096 18.9128 630.273 15.7227C639.388 16.1784 647.135 16.5202 653.516 16.748C660.124 16.9759 665.592 17.2038 669.922 17.4316C674.935 17.6595 679.036 17.7734 682.227 17.7734H696.582C701.823 17.7734 708.659 17.7734 717.09 17.7734C725.521 17.5456 736.117 17.3177 748.877 17.0898C740.446 19.1406 732.471 21.875 724.951 25.293C717.432 28.7109 710.71 32.015 704.785 35.2051C697.949 39.0788 691.569 43.0664 685.645 47.168C679.72 51.7253 673.112 57.0801 665.82 63.2324C659.668 68.4733 652.49 74.9674 644.287 82.7148C636.084 90.2344 627.197 99.0072 617.627 109.033C627.881 129.085 636.768 145.605 644.287 158.594C652.035 171.354 658.529 181.608 663.77 189.355C669.694 198.47 674.707 205.42 678.809 210.205C682.91 214.535 687.695 218.978 693.164 223.535C697.721 227.409 703.418 231.738 710.254 236.523C717.09 241.081 724.951 245.524 733.838 249.854L636.426 254.639C637.793 252.816 638.59 250.651 638.818 248.145C639.274 245.41 639.502 242.904 639.502 240.625C639.502 238.118 639.274 235.384 638.818 232.422C637.907 228.776 635.514 222.852 631.641 214.648C628.451 207.585 623.551 197.673 616.943 184.912C610.335 171.924 601.221 154.834 589.6 133.643L560.547 164.062C559.408 171.354 558.838 177.962 558.838 183.887C558.838 189.811 559.066 194.71 559.521 198.584C560.205 203.369 561.117 207.471 562.256 210.889C563.623 214.307 565.56 218.18 568.066 222.51C570.117 226.383 572.852 230.941 576.27 236.182C579.688 241.423 584.017 247.233 589.258 253.613C584.017 252.246 578.776 251.335 573.535 250.879C568.294 250.195 563.509 249.74 559.18 249.512C554.167 249.284 549.382 249.398 544.824 249.854C540.039 250.309 534.456 250.993 528.076 251.904C522.607 252.816 515.885 253.955 507.91 255.322C499.935 256.689 490.82 258.398 480.566 260.449C485.579 257.487 489.567 254.297 492.529 250.879C495.492 247.461 497.884 244.157 499.707 240.967C501.758 237.321 503.125 233.789 503.809 230.371C504.264 227.409 504.606 221.029 504.834 211.23C505.29 201.432 505.518 190.039 505.518 177.051C505.745 163.835 505.745 149.935 505.518 135.352C505.29 120.768 505.062 107.096 504.834 94.3359C504.606 81.5755 504.264 70.752 503.809 61.8652C503.581 52.7507 503.353 47.168 503.125 45.1172C502.441 41.9271 501.53 38.5091 500.391 34.8633C499.251 31.6732 497.656 28.3691 495.605 24.9512C493.783 21.3053 491.39 17.7734 488.428 14.3555ZM822.705 0.683594C835.01 1.13932 847.428 3.41797 859.961 7.51953C872.721 11.3932 884.456 17.7734 895.166 26.6602C905.876 35.319 914.99 46.5983 922.51 60.498C930.029 74.1699 934.701 90.918 936.523 110.742C938.118 126.921 936.068 142.985 930.371 158.936C924.902 174.658 917.269 189.128 907.471 202.344C897.673 215.56 886.393 226.839 873.633 236.182C860.872 245.296 848.112 251.335 835.352 254.297C827.604 256.12 819.059 256.348 809.717 254.98C800.602 253.385 791.26 250.537 781.689 246.436C772.347 242.106 763.118 236.637 754.004 230.029C745.117 223.421 737.028 215.902 729.736 207.471C722.445 198.812 716.292 189.469 711.279 179.443C706.494 169.417 703.532 158.936 702.393 147.998C701.253 138.883 701.139 128.857 702.051 117.92C703.19 106.755 705.355 95.7031 708.545 84.7656C711.963 73.6003 716.634 62.8906 722.559 52.6367C728.711 42.1549 736.458 33.0404 745.801 25.293C755.143 17.3177 766.081 11.1654 778.613 6.83594C791.374 2.27865 806.071 0.227865 822.705 0.683594ZM761.523 139.111C758.333 163.493 760.612 183.089 768.359 197.9C776.335 212.712 788.298 221.712 804.248 224.902C811.995 226.497 819.401 224.902 826.465 220.117C833.757 215.104 840.365 207.926 846.289 198.584C852.214 189.242 857.34 178.304 861.67 165.771C865.999 153.239 869.189 140.137 871.24 126.465C873.291 112.793 873.405 100.488 871.582 89.5508C869.987 78.3854 867.139 68.929 863.037 61.1816C858.936 53.2064 853.923 47.054 847.998 42.7246C842.301 38.3952 836.377 36.0026 830.225 35.5469C819.515 34.8633 810.173 37.7116 802.197 44.0918C794.222 50.2441 787.5 58.3333 782.031 68.3594C776.562 78.3854 772.119 89.6647 768.701 102.197C765.511 114.73 763.118 127.035 761.523 139.111Z" fill="#EDE1CB"/>
</svg>
