<svg width="491" height="434" viewBox="0 0 491 434" fill="none" xmlns="http://www.w3.org/2000/svg">
<path d="M263.346 169.317C268.47 173.093 277.182 183.978 271.033 197.319C261.699 196.221 263.346 185.24 263.346 169.317Z" fill="#EDE1CB"/>
<path d="M326.029 431.212H338.565C345.703 418.856 359.539 392.416 357.782 385.501C346.746 404.522 330.239 431.212 326.029 431.212Z" fill="#EDE1CB"/>
<path d="M361.292 283.519C397.043 261.118 368.214 218.732 338.565 229.266C340.164 231.337 341.842 233.692 343.533 236.301C354.488 238.497 372.943 248.709 359.128 271.989C360.05 275.716 360.788 279.567 361.292 283.519Z" fill="#EDE1CB"/>
<path d="M221.446 239.046C216.196 239.595 205.037 240.035 202.402 237.399C204.964 240.468 212.394 246.178 221.618 244.473C221.547 242.642 221.49 240.832 221.446 239.046Z" fill="#EDE1CB"/>
<path d="M2 364.228C83.2587 298.782 90.9453 256.066 84.3568 237.399C84.7204 236.235 85.2196 235.136 85.8144 234.105C83.0273 232.787 76.3608 245.635 73.3759 252.223C68.105 250.027 57.939 220.928 53.5148 206.652L2 252.223V364.228Z" fill="#EDE1CB"/>
<path d="M214.48 56.7636C212.284 63.5351 210.088 79.0548 218.873 86.9611C227.658 94.8673 230.952 102.7 231.501 105.628H235.893C239.737 85.3134 216.128 88.6082 214.48 56.7636Z" fill="#EDE1CB"/>
<path d="M289.628 133.493C289.45 134.295 289.201 135.076 288.871 135.826C289.086 135.826 289.147 138.754 289.151 140.218C288.636 143.04 287.663 147.218 286.27 152.297H296.288L296.837 131.434L289.628 133.493Z" fill="#EDE1CB"/>
<path d="M239.737 67.7445C245.41 75.0649 254.78 94.757 246.874 114.962C255.11 107.275 265.212 87.0709 239.737 67.7445Z" fill="#EDE1CB"/>
<path d="M288.871 60.0578C290.794 54.3844 294.971 47.32 296.288 64.4502C297.606 81.5804 288.053 104.164 283.111 113.315C279.817 117.89 273.997 132.642 277.072 155.043V160.533C271.033 151.748 262.907 126.163 278.719 94.0986C282.01 84.9479 288.647 65.3287 288.871 60.0578Z" fill="#EDE1CB"/>
<path d="M307.269 113.315C307.269 133.63 314.626 168.549 302.328 178.652C303.975 166.573 296.288 125.943 307.269 113.315Z" fill="#EDE1CB"/>
<path d="M314.407 130.336L316.054 155.043C335.453 155.408 372.386 153.395 364.919 142.414C357.452 131.434 328.133 129.787 314.407 130.336Z" fill="#EDE1CB"/>
<path d="M340.761 287.911C339.004 287.033 330.208 290.473 326.029 292.304C326.24 293.046 326.44 293.779 326.629 294.5H341C341.479 291.073 341.572 288.316 340.761 287.911Z" fill="#EDE1CB"/>
<path d="M468.49 285.715L471.596 288.019L476.924 270.891L486.807 278.578V245.635V217.085V215.438L479.277 209.947L478.022 211.594L476.924 210.771L467.327 230.959L466.761 232.458L483.513 245.635L475.826 264.852L459.501 251.675L458.257 254.969L453.035 270.891L468.49 285.715Z" fill="#EDE1CB"/>
<path d="M451.668 218.183L442.334 237.399L441.616 238.498L458.257 254.969L459.501 251.675L466.761 232.458L467.327 230.959L467.59 230.262L452.334 217.085L451.668 218.183Z" fill="#EDE1CB"/>
<path d="M438.417 201.712L451.668 218.183L452.334 217.085L462.649 200.064L464.479 197.319L449.243 184.691C445.43 189.982 441.634 196.116 438.417 201.712Z" fill="#EDE1CB"/>
<path d="M486.807 184.691L459.904 170.965L461.276 172.063L462.649 173.161L473.63 183.593L464.479 197.319L462.649 200.064L476.924 210.771L478.022 211.594L479.277 209.947L486.807 200.064V184.691Z" fill="#EDE1CB"/>
<path d="M422.569 235.752C423.008 238.827 429.706 247.648 433 251.675L441.616 238.498L442.334 237.399L427.607 220.379C424.879 226.834 422.281 233.74 422.569 235.752Z" fill="#EDE1CB"/>
<path d="M189.774 116.609C182.453 121.001 172.204 131.323 189.774 137.473C211.736 145.159 223.814 150.65 264.993 140.218C264.81 133.446 264.883 119.574 266.64 118.256L254.561 114.962C250.535 120.818 242.372 128.688 241.933 113.315C230.037 111.485 202.951 109.581 189.774 116.609Z" fill="#EDE1CB"/>
<path d="M277.072 197.319C275.791 200.796 271.911 206.103 266.64 199.515C251.633 202.992 227.329 210.496 250.169 212.692C278.719 215.437 317.701 220.499 319.898 207.751C319.898 201.162 291.347 198.051 277.072 197.319Z" fill="#EDE1CB"/>
<path d="M221.618 215.437C221.984 210.496 230.513 199.735 261.699 196.221M221.618 215.437C226.889 221.587 250.535 223.856 261.699 224.222M221.618 215.437C221.327 222.291 221.232 230.372 221.446 239.046M302.877 330.188C302.511 316.096 300.571 284.727 295.74 271.989C289.7 256.067 299.583 239.595 314.407 264.851C319.976 274.339 323.664 283.956 326.029 292.304M302.877 330.188C301.412 331.653 296.048 333.812 284.759 334.742M302.877 330.188C303.4 341.608 310.782 362.764 314.407 371.915M329.78 313.716C329.691 309.871 328.85 302.94 326.629 294.5M326.029 292.304C330.208 290.473 339.004 287.033 340.761 287.911M326.029 292.304V290.107C326.234 289.528 326.434 288.925 326.629 288.299M326.029 292.304C326.24 293.046 326.44 293.779 326.629 294.5M340.761 287.911C341.572 288.316 341.479 291.073 341 294.5M340.761 287.911C340.877 286.672 340.955 285.472 341 284.313M338.565 306.579C339.354 303.423 340.44 298.504 341 294.5M334.722 207.751C325.498 221.367 295.008 224.405 280.915 224.222M334.722 207.751C338.675 191.499 299.034 191.462 278.719 193.475M334.722 207.751C334.712 209.261 334.692 210.915 334.66 212.692M332.083 257.165C332.459 253.54 332.786 249.854 333.071 246.184M332.083 257.165C331.931 258.641 331.77 260.107 331.601 261.557M332.083 257.165C335.47 259.388 341.638 267.81 341 284.313M308.368 242.341C314.443 242.341 328.009 241.352 333.677 237.399M333.677 237.399C333.501 240.29 333.3 243.231 333.071 246.184M333.677 237.399C333.955 232.825 334.169 228.379 334.33 224.222M319.898 250.576C322.457 250.393 328.676 249.258 333.071 246.184M322.094 261.557C323.775 261.557 328.031 261.557 331.601 261.557M331.601 261.557C330.398 271.882 328.779 281.427 326.629 288.299M256.208 231.909C268.876 233.739 298.25 235.203 314.407 226.418M334.33 224.222C335.638 225.637 337.067 227.327 338.565 229.266M334.33 224.222C334.492 220.031 334.598 216.133 334.66 212.692M362.723 376.856L360.527 374.66C355.586 365.876 351.193 360.385 360.527 311.52C362.371 301.866 362.429 292.438 361.292 283.519M362.723 376.856L372.606 363.13L411.039 388.935L395.98 407.054M362.723 376.856C361.279 379.425 359.605 382.358 357.782 385.501M375.9 431.212L395.98 407.054M395.98 407.054L417.628 431.212M357.782 385.501C346.746 404.522 330.239 431.212 326.029 431.212H338.565C345.703 418.856 359.539 392.416 357.782 385.501ZM384.136 385.501L350.644 431.212M284.759 334.742C277.713 335.322 268.361 335.424 256.208 334.58C231.319 332.852 223.162 284.083 221.618 244.473M284.759 334.742C285.308 337.25 286.406 344.353 286.406 352.698C286.406 363.13 282.013 371.366 290.798 383.445C299.583 395.524 311.57 405.956 318.799 431.212M338.565 229.266C368.214 218.732 397.043 261.118 361.292 283.519M338.565 229.266C340.164 231.337 341.842 233.692 343.533 236.301M361.292 283.519C360.788 279.567 360.05 275.716 359.128 271.989M343.533 236.301C349.494 245.496 355.631 257.843 359.128 271.989M343.533 236.301C354.488 238.497 372.943 248.709 359.128 271.989M221.446 239.046C216.196 239.595 205.037 240.035 202.402 237.399M221.446 239.046C221.49 240.832 221.547 242.642 221.618 244.473M202.402 237.399C204.964 240.468 212.394 246.178 221.618 244.473M202.402 237.399C200.349 233.156 197.75 227.31 194.971 220.379M216.128 105.628C178.793 103.981 174.95 123.198 173.302 127.041C172.916 127.943 172.803 129.308 172.865 130.885M175.245 146.257C175.128 144.967 175.029 143.686 174.95 142.414C174.316 140.198 173.428 136.448 173.041 133.081M175.245 146.257C171.909 146.676 168.181 147.531 164.517 148.911M175.245 146.257C175.352 147.438 175.475 148.626 175.612 149.82M156.282 201.711C158.089 197.709 161.554 192.032 164.517 192.271M156.282 201.711C134.107 236.301 114.554 173.709 135.418 146.257C151.34 125.308 163.236 139.059 164.517 148.911M156.282 201.711C152.425 196.083 149.708 190.972 147.937 186.338M167.812 196.221C170.886 205.445 169.093 212.875 167.812 215.437M167.812 196.221C172.021 201.323 182.307 210.547 189.774 206.62M167.812 196.221C166.906 193.503 165.755 192.371 164.517 192.271M167.812 215.437C171.094 218.731 181.12 224.332 194.971 220.379M167.812 215.437C159.576 229.713 133.881 251.455 96.9848 224.222C94.236 225.444 88.8114 228.908 85.8144 234.105M194.971 220.379C193.278 216.156 191.518 211.531 189.774 206.62M189.774 206.62C184.988 193.147 180.322 177.525 177.483 162.18M177.483 162.18C170.965 162.292 159.247 168.467 164.517 192.271M177.483 162.18C176.714 158.024 176.079 153.888 175.612 149.82M164.517 148.911C151.742 153.724 139.753 164.928 147.937 186.338M53.5148 206.652L2 252.223V364.228C83.2587 298.782 90.9453 256.066 84.3568 237.399C84.7204 236.235 85.2196 235.136 85.8144 234.105M53.5148 206.652L59.1007 201.711C66.7873 192.377 79.8546 166.901 70.6307 139.669C59.1007 105.628 60.9374 83.6662 73.3759 85.3134C85.8144 86.9605 84.3568 127.59 89.2982 133.63L90.9453 137.473C82.4092 99.0403 101.377 54.5675 116.201 67.7441C116.201 78.1763 96.9848 119.355 106.319 137.473C108.332 117.89 119.276 77.8469 146.948 74.333C166.165 79.8235 148.595 89.1567 128.28 113.315C123.888 119.721 115.543 135.497 117.299 147.356C123.963 131.434 144.405 105.849 172.865 130.885M53.5148 206.652C57.939 220.928 68.105 250.027 73.3759 252.223C76.3608 245.635 83.0273 232.787 85.8144 234.105M172.865 130.885C172.893 131.583 172.954 132.322 173.041 133.081M198.009 147.356C189.745 146.075 173.182 141.426 173.041 133.081M221.446 152.846C233.765 153.151 260.052 152.791 266.64 148.911M286.954 118.256C288.864 121.97 290.811 128.169 289.628 133.493M280.915 142.414C285.157 141.098 287.609 138.69 288.871 135.826M277.072 180.299C281.027 169.941 284.139 160.065 286.27 152.297M288.871 135.826C289.086 135.826 289.147 138.754 289.151 140.218C288.636 143.04 287.663 147.218 286.27 152.297M288.871 135.826C289.201 135.076 289.45 134.295 289.628 133.493M289.151 133.63L289.628 133.493M286.27 152.297H296.288L296.837 131.434L289.628 133.493M268.287 107.825C266.64 107.459 262.687 106.727 260.051 106.727C257.416 106.727 258.221 106.727 258.953 106.727M239.737 105.628C241.018 105.628 243.909 105.628 245.227 105.628M227.658 0.211914C227.484 1.84015 227.314 3.69089 227.162 5.70237M227.162 5.70237C226.031 20.6478 225.856 44.4666 232.05 51.8222C224.912 51.8222 217.103 25.0288 227.162 5.70237ZM291.896 122.649L298.484 120.453M314.407 118.256C329.414 117.524 361.405 119.135 369.311 131.434C371.22 134.404 372.224 139.259 372.382 145.16M334.66 212.692C348.899 212.692 359.623 197.986 365.934 180.848M371.958 155.043C378.58 151.748 391.493 148.235 390.175 160.533C389.645 165.483 387.751 169.863 385.234 173.161M371.958 155.043C371.308 161.327 369.956 168.141 367.95 174.808M371.958 155.043C372.32 151.546 372.464 148.213 372.382 145.16M367.95 174.808C367.338 176.841 366.666 178.861 365.934 180.848M367.95 174.808C370.42 179.504 374.541 180.385 378.578 178.652M365.934 180.848C366.694 184.508 370.3 190.401 378.645 184.691M378.645 184.691L378.578 178.652M378.645 184.691C378.096 196.038 383.037 215.657 407.195 203.359C411.771 197.502 422.898 190.621 430.804 209.947L431.628 211.32M378.578 178.652C380.941 177.637 383.276 175.726 385.234 173.161M326.629 294.5H341M341 284.313L326.629 288.299M175.612 149.82C164.338 149.365 143.019 156.031 147.937 186.338M372.382 145.16C374.495 144.368 377.05 143.673 379.743 143.3M386.332 181.946C393.799 181.507 398.594 168.952 400.058 162.729C400.862 148.786 394.013 143.955 386.332 143.14M386.332 181.946C386.149 180.665 385.673 177.115 385.234 173.161M386.332 181.946C389.443 190.182 397.971 202.261 407.195 184.691C418.725 162.729 423.118 115.511 403.352 125.394C387.54 133.3 385.417 140.519 386.332 143.14M386.332 143.14C384.151 142.908 381.902 143 379.743 143.3M379.743 143.3C377.913 134.037 380.512 114.633 405.548 111.119C411.405 110.021 424.216 110.899 428.608 123.198C429.889 101.602 434.867 60.8265 444.53 70.4897C446.361 75.4311 448.703 94.9771 443.432 133.63C445.079 123.93 451.339 102.444 463.198 94.0986C465.577 92.6345 470.116 92.3417 469.237 102.883C468.359 113.425 457.891 136.192 452.766 146.258C461.734 137.839 480.987 121.441 486.258 123.198C492.846 125.394 481.316 138.022 475.277 145.16C469.237 152.297 463.198 153.945 459.904 170.965M459.904 170.965L486.807 184.691V200.064L479.277 209.947M459.904 170.965L461.276 172.063M462.649 200.064L464.479 197.319M462.649 200.064L452.334 217.085M462.649 200.064L476.924 210.771M461.276 172.063L462.649 173.161L473.63 183.593L464.479 197.319M461.276 172.063C457.762 173.949 453.491 178.796 449.243 184.691M431.628 211.32L432.451 212.692C433.97 209.702 436.035 205.854 438.417 201.712M431.628 211.32C430.521 213.691 429.046 216.972 427.607 220.379M433 251.675C429.706 247.648 423.008 238.827 422.569 235.752C422.281 233.74 424.879 226.834 427.607 220.379M433 251.675L441.616 238.498M433 251.675L453.035 270.891M442.334 237.399L427.607 220.379M442.334 237.399L451.668 218.183M442.334 237.399L441.616 238.498M451.668 218.183L438.417 201.712M451.668 218.183L452.334 217.085M438.417 201.712C441.634 196.116 445.429 189.982 449.243 184.691M449.243 184.691L464.479 197.319M452.334 217.085L467.59 230.262L467.327 230.959M458.257 254.969L441.616 238.498M458.257 254.969L459.501 251.675M458.257 254.969L453.035 270.891M468.49 285.715L471.434 288.539M468.49 285.715L453.035 270.891M468.49 285.715L471.596 288.019M471.434 288.539L486.807 303.285L486.258 298.893L471.596 288.019M471.434 288.539L471.596 288.019M479.277 209.947L478.022 211.594L476.924 210.771M479.277 209.947L486.807 215.438V217.085V245.635V278.578L476.924 270.891L471.596 288.019M476.924 210.771L467.327 230.959M467.327 230.959L466.761 232.458M466.761 232.458L483.513 245.635L475.826 264.852L459.501 251.675M466.761 232.458L459.501 251.675M277.072 197.319C275.791 200.796 271.911 206.103 266.64 199.515C251.633 202.992 227.329 210.496 250.169 212.692C278.719 215.437 317.701 220.499 319.898 207.751C319.898 201.162 291.347 198.051 277.072 197.319ZM263.346 169.317C268.47 173.093 277.182 183.978 271.033 197.319C261.699 196.221 263.346 185.24 263.346 169.317ZM189.774 116.609C182.453 121.001 172.204 131.323 189.774 137.473C211.736 145.159 223.814 150.65 264.993 140.218C264.81 133.446 264.883 119.574 266.64 118.256L254.561 114.962C250.535 120.818 242.372 128.688 241.933 113.315C230.037 111.485 202.951 109.581 189.774 116.609ZM214.48 56.7636C212.284 63.5351 210.088 79.0548 218.873 86.9611C227.658 94.8673 230.952 102.7 231.501 105.628H235.893C239.737 85.3134 216.128 88.6082 214.48 56.7636ZM239.737 67.7445C245.41 75.0649 254.78 94.757 246.874 114.962C255.11 107.275 265.212 87.0709 239.737 67.7445ZM201.852 22.1737C198.009 34.6187 192.628 62.0344 201.852 72.1368C195.63 69.0256 186.918 54.6772 201.852 22.1737ZM288.871 60.0578C290.794 54.3844 294.971 47.32 296.288 64.4502C297.606 81.5804 288.053 104.164 283.111 113.315C279.817 117.89 273.997 132.642 277.072 155.043V160.533C271.033 151.748 262.907 126.163 278.719 94.0986C282.01 84.9479 288.647 65.3287 288.871 60.0578ZM307.269 113.315C307.269 133.63 314.626 168.549 302.328 178.652C303.975 166.573 296.288 125.943 307.269 113.315ZM314.407 130.336L316.054 155.043C335.453 155.408 372.386 153.395 364.919 142.414C357.452 131.434 328.133 129.787 314.407 130.336Z" stroke="#EDE1CB" stroke-width="4" stroke-linejoin="round"/>
<path d="M291.347 203.358C296.654 203.541 305.292 205.115 297.386 209.947" stroke="#6F1D1B" stroke-width="4" stroke-linecap="round" stroke-linejoin="round"/>
<path d="M258.404 208.3C275.425 206.653 275.425 212.143 288.053 209.398" stroke="#6F1D1B" stroke-width="4" stroke-linecap="round" stroke-linejoin="round"/>
<path d="M193.068 131.983C201.304 133.081 202.621 134.618 214.481 138.571M221.618 138.571H227.658" stroke="#6F1D1B" stroke-width="4" stroke-linecap="round" stroke-linejoin="round"/>
</svg>
