<svg width="76" height="112" viewBox="0 0 76 112" fill="none" xmlns="http://www.w3.org/2000/svg">
<path d="M17.9648 74.5398C18.1381 76.379 19.627 77.513 20.0124 79.7207C20.3996 81.9213 19.8835 82.426 20.6656 84.8463C21.4613 87.3114 21.726 89.8429 22.2976 90.9036C22.8594 91.928 22.1407 92.2421 22.7745 93.762C23.3987 95.2337 23.5949 96.198 23.8055 97.6411C23.9756 99.0293 25.2916 103.287 26.3256 104.427C26.8314 105.046 27.2275 105.76 27.5188 106.03L27.6612 106.088L27.7813 106.262C28.01 106.843 28.5078 107.409 28.9241 107.729C29.1852 107.929 29.3953 108.093 29.5548 108.23C29.6217 108.288 29.6383 108.35 29.6179 108.395C29.6179 108.395 29.6179 108.395 29.6178 108.395C29.5925 108.451 29.5102 108.481 29.4043 108.44C28.894 108.227 28.1144 107.977 27.2136 107.339C27.0315 107.205 26.8771 107.058 26.7491 106.902L27.011 107.134C25.4113 106.238 25.6949 105.583 24.5458 103.716C23.3764 101.574 22.4761 100.275 21.8489 97.4885C21.2571 94.7196 19.9443 94.3978 19.477 90.3549C19.0328 86.3021 17.7704 86.2445 16.6079 82.3949C15.4562 78.5646 14.9221 73.5036 14.3178 71.1807C13.7108 68.8578 12.8412 65.738 12.2466 62.3808C11.6505 59.0221 10.3503 55.0005 9.83809 51.2659C9.3231 47.534 8.58467 42.2501 8.33047 39.809C8.0688 37.3371 8.00387 36.7449 7.39531 34.4729C7.04086 33.1418 6.75504 31.2994 6.7571 29.6933C6.76154 28.9018 7.00884 29.0292 7.26277 29.7797C7.63619 30.8869 7.72862 31.8742 8.11059 32.3946C8.88085 33.4677 9.18812 33.9369 9.17629 35.4795C9.17337 37.0631 10.0147 37.5763 10.114 38.4748C10.2155 39.3755 9.78531 39.4259 11.0276 43.7713C12.2723 48.1086 12.8793 50.5115 13.3151 52.1543C13.7525 53.805 14.1536 57.3601 14.8923 60.0401C15.6256 62.7208 16.7748 68.2534 17.5143 70.4111C18.2534 72.5801 17.7886 72.6797 17.9648 74.5398ZM2.92511 24.8651C2.76524 25.1854 3.87254 24.7617 3.83562 24.9909C3.83155 25.26 3.40872 25.7305 3.75996 25.8792C4.10822 26.0208 4.16656 26.5929 4.45879 26.4847C4.74365 26.3706 4.33893 27.0336 4.64956 27.0276C4.9563 27.0169 5.05957 27.1934 5.13354 27.5222C5.21307 27.8597 5.80354 28.3932 6.19435 28.2247C6.56724 28.0536 6.63358 28.6636 6.77404 28.8578C6.81605 28.9176 6.84133 28.9861 6.85556 29.0526C6.86158 29.0807 6.85003 29.13 6.83179 29.176C6.83178 29.176 6.83177 29.176 6.83176 29.1761C6.80905 29.2333 6.77593 29.2853 6.75373 29.2848C6.6459 29.2825 6.47074 29.3192 6.22365 29.4576C5.75887 29.712 5.92257 29.2841 5.4194 29.2878C4.93654 29.2966 4.4696 29.5432 4.13902 29.0421C3.80892 28.5302 3.06824 29.4489 2.77511 28.4311C2.53384 27.4078 1.71372 28.3266 0.910898 27.6733C0.0874222 27.009 0.131365 25.334 0.0795501 24.7334C-0.0561632 24.0961 -0.0651864 23.108 0.429928 22.3942C0.891446 21.7032 1.14565 20.692 1.91481 20.3041C2.67057 19.914 3.70323 19.5689 4.21741 19.5102C4.73218 19.4481 4.84444 19.4412 5.1424 19.0874C5.31191 18.8864 5.66152 18.7813 6.0586 18.9272C6.25673 19.0016 6.32483 19.2117 6.25066 19.3677C6.14141 19.5968 5.94644 19.5888 5.99093 19.8771C6.07989 20.4543 6.1284 20.6677 5.74665 20.5306C5.36317 20.3963 5.6569 21.0679 5.49721 21.0759C5.33987 21.0878 5.07214 20.7335 4.69902 21.4411C4.3493 22.1465 4.1851 22.46 4.08258 22.6889C3.98921 22.9055 3.39122 23.0752 3.35617 23.4428C3.29977 23.7947 3.09932 24.2743 3.35085 24.404C3.58701 24.5172 3.11303 24.5866 2.92511 24.8651ZM17.2984 31.95C16.7626 31.6704 16.2912 32.8311 15.6225 32.6315C14.9563 32.4291 14.898 31.8019 14.1261 31.8838C13.3512 31.9641 12.6265 31.455 12.2604 31.6679C11.8885 31.88 11.9482 31.1078 11.4504 31.2115C10.9441 31.312 10.6649 31.1639 10.2943 30.8425C9.91567 30.5261 8.71551 30.0495 8.18344 30.221C7.643 30.4003 7.27044 29.7272 7.00839 29.5056C6.92605 29.4367 6.8699 29.3603 6.83233 29.2877C6.81641 29.2569 6.82192 29.2058 6.83806 29.1591C6.83807 29.159 6.83808 29.159 6.83809 29.159C6.85823 29.1008 6.8947 29.0494 6.92724 29.0523C7.08395 29.0662 7.34174 29.0468 7.66312 28.9112C8.26241 28.6547 8.18736 29.1145 8.90167 29.0727C9.61699 29.0236 10.0843 28.6852 10.8161 29.0946C11.5652 29.4982 11.8983 28.3833 12.9277 29.1643C13.984 29.9351 14.221 28.739 15.3332 28.6507C16.4447 28.5598 17.8443 29.2578 18.5307 29.2048C19.2142 29.1544 20.1253 29.0079 21.0971 29.1417C22.0726 29.2765 23.251 28.8218 24.3376 29.041C25.4258 29.2631 26.9776 29.5013 27.7044 29.6772C28.4328 29.8539 28.6099 29.8916 29.2746 29.6775C29.6565 29.5542 30.2006 29.5775 30.6899 29.8369C30.9365 29.9674 30.909 30.1901 30.6888 30.3194C30.3666 30.5084 30.0796 30.4361 29.9328 30.7256C29.6393 31.3042 29.5105 31.5277 29.0369 31.2552C28.5636 30.9825 28.4251 31.7192 28.157 31.6603C27.8893 31.5999 27.86 31.1809 26.5719 31.6131C25.2815 32.042 24.5549 32.1663 24.0595 32.2735C23.5586 32.3811 22.4967 32.0631 21.6805 32.2212C20.8637 32.3848 19.1912 32.2835 18.5121 32.4926C17.8356 32.7047 17.8332 32.2277 17.2984 31.95ZM68.9709 75.1469C68.613 77.2296 69.7147 78.93 69.4363 81.4753C69.1579 84.0207 68.5181 84.3755 68.5295 87.3052C68.5409 90.2346 67.986 93.1409 68.1846 94.4538C68.3833 95.7666 67.6032 95.8699 67.6937 97.7259C67.7842 99.5818 67.6338 100.698 67.3111 102.303C67.2231 102.74 67.1269 103.427 67.0382 104.231L67.0374 104.613L66.6331 104.765C64.5363 105.309 61.6551 106.124 60.4449 106.697C58.782 107.495 56.6344 107.5 55.3995 107.667C55.0134 107.721 54.7057 107.738 54.465 107.737C54.3634 107.736 54.3078 107.697 54.2965 107.649C54.2965 107.649 54.2965 107.649 54.2965 107.649C54.2825 107.589 54.3371 107.514 54.4587 107.478C55.0493 107.3 55.919 106.986 56.9121 106.499C58.7569 105.582 59.0917 105.975 61.6505 105.004C63.3591 104.346 64.5594 103.716 66.1032 103.149L65.3393 104.156C65.3459 103.338 65.3996 102.447 65.5379 101.387C65.9558 98.1809 64.8324 97.3909 65.6876 92.8772C66.5427 88.3636 65.3548 87.8322 65.3934 83.2985C65.4321 78.7646 66.3508 73.0799 66.4156 70.3487C66.4805 67.6175 66.5011 63.9463 66.831 60.085C67.161 56.2236 66.9685 51.4305 67.4413 47.173C67.914 42.9155 68.5394 36.8944 68.9032 34.116C69.2669 31.3378 69.3512 30.6604 69.3222 27.9695C69.3056 26.4227 69.4789 24.3005 69.8692 22.5187C70.0656 21.622 70.2747 21.8364 70.339 22.7505C70.433 24.0872 70.283 25.1745 70.5253 25.8718C71.0096 27.2652 71.193 27.8564 70.7998 29.5712C70.4067 31.2859 71.0912 32.1321 70.9639 33.1362C70.8366 34.1403 70.4124 34.105 70.5141 39.2433C70.6158 44.3817 70.5756 47.1943 70.5688 49.1382C70.5619 51.0821 70.0147 55.1175 70.0085 58.2858C70.0023 61.454 69.5972 67.8777 69.7009 70.4789C69.8047 73.08 69.3289 73.0644 68.9709 75.1469ZM72.8288 14.3389C73.0324 13.9674 71.828 14.0677 71.9443 13.9485C71.9952 13.8684 72.1542 13.7532 72.2582 13.6294C72.3665 13.5108 72.4093 13.3854 72.3404 13.428C72.2845 13.4779 72.2709 13.3957 72.1722 13.3329C72.0818 13.2709 71.9495 13.2433 71.9017 13.382C71.8195 13.659 71.6197 12.9051 71.4026 13.1548C71.2024 13.4061 71.0201 13.3775 70.6672 13.2708C70.3183 13.1502 69.4345 13.4413 69.3573 13.8866C69.2811 14.3186 68.6741 14.1095 68.4152 14.155C68.3357 14.168 68.2586 14.1609 68.1899 14.1443C68.1608 14.1372 68.1225 14.1039 68.0911 14.0658C68.091 14.0657 68.091 14.0657 68.091 14.0657C68.0518 14.0182 68.0234 13.9632 68.0367 13.9422C68.1011 13.8406 68.1706 13.656 68.1973 13.3533C68.255 12.7866 68.5604 13.1276 68.8727 12.6545C69.1915 12.1875 69.2742 11.6274 70.0132 11.5739C70.7227 11.5749 70.5017 10.3291 71.8566 10.8069C72.4944 11.097 72.8128 11.0371 73.304 10.9629C73.7646 10.8927 74.4734 10.8793 75.07 11.5116C76.1993 12.839 75.595 14.2513 75.6588 14.83C75.6603 14.8531 75.6627 14.8752 75.666 14.8964C75.7526 15.4432 75.9074 16.2155 75.6641 17.0299C75.4296 17.813 75.6048 18.959 74.9344 19.7788C74.3067 20.5963 73.1363 21.4427 72.5145 21.5858C71.8969 21.7526 71.7833 21.7555 71.3381 22.1222C71.0812 22.328 70.5841 22.3895 70.197 22.1113C70.006 21.9697 70.0482 21.7493 70.1833 21.6304C70.3743 21.4546 70.5718 21.5051 70.5954 21.2133C70.6321 20.6281 70.5716 20.4288 70.9213 20.6109C71.2933 20.7737 71.0066 20.0942 71.1451 20.0967C71.2787 20.0862 71.6102 20.4371 71.8484 19.675C72.0264 18.9233 72.0526 18.5475 72.0818 18.2704C72.1011 18.0119 72.6168 17.5335 72.5491 17.0145C72.4979 16.5283 72.6363 15.4974 72.3835 15.0844C72.3726 15.0657 72.3631 15.0477 72.3549 15.0305C72.1809 14.7108 72.624 14.6681 72.8288 14.3389ZM66.6895 24.1819C66.4729 23.9651 66.6637 25.1313 66.44 25.0194C66.2168 24.9074 66.0282 24.3124 65.8589 24.503C65.6892 24.6936 65.3738 24.3361 65.3477 24.608C65.3218 24.88 65.1138 24.1336 65.0277 24.3343C64.942 24.5349 64.8367 24.4581 64.6593 24.2443C64.4812 24.0308 64.079 23.9137 64.0296 24.2461C63.9807 24.5786 63.7007 24.0966 63.582 23.9958C63.5449 23.9644 63.51 23.9174 63.4795 23.867C63.4665 23.8456 63.4508 23.7979 63.4384 23.7501C63.4384 23.75 63.4384 23.75 63.4384 23.75C63.423 23.6904 63.4128 23.6305 63.4198 23.6206C63.4536 23.5729 63.4933 23.4598 63.5132 23.224C63.5505 22.7843 63.6813 23.2256 63.819 22.9687C63.9562 22.7119 63.9624 22.2682 64.2573 22.4766C64.5527 22.6848 64.3084 21.5526 64.7927 22.1026C65.278 22.652 65 21.4737 65.2721 21.2341C65.5443 20.9945 66.1151 21.5314 66.2906 21.426C66.4657 21.3209 66.6823 21.1153 66.9931 21.1951C67.3042 21.2748 67.5268 20.7943 67.8992 20.9856C68.2716 21.177 68.7891 21.404 69.0492 21.5803C69.309 21.7567 69.3716 21.7952 69.5174 21.5998C69.6009 21.4875 69.7705 21.5215 69.9824 21.7842C70.0888 21.9165 70.1359 22.1301 70.1018 22.2488C70.0518 22.4224 69.9471 22.3466 69.9753 22.6224C70.0311 23.1739 70.0485 23.3866 69.8392 23.1167C69.6307 22.8466 69.7724 23.5561 69.6789 23.4966C69.5854 23.4369 69.4697 23.0279 69.2004 23.4453C68.9305 23.8627 68.7554 23.9986 68.6399 24.1127C68.5249 24.2267 68.1406 23.9508 67.9539 24.1408C67.7669 24.331 67.2824 24.3375 67.1572 24.5976C67.0319 24.8579 66.9065 24.3986 66.6895 24.1819ZM41.4931 20.4652C42.9014 20.6185 43.87 19.3465 45.5423 19.3092C47.2194 19.2599 47.5636 19.8455 49.444 19.3912C51.3141 18.9329 53.2848 18.9328 54.0602 18.4821C54.8278 18.0324 55.1085 18.7658 56.2439 18.2828C57.3755 17.7934 58.1011 17.6793 59.1978 17.589C60.2939 17.5235 63.4778 16.5485 64.4313 15.7529C65.0111 15.2917 65.7591 15.069 66.4381 14.8982L66.2964 15.0016C66.7022 14.7325 67.0937 14.5266 67.3784 14.3405C67.6004 14.1955 67.7925 14.1036 67.9491 14.0464C68.0156 14.0223 68.0711 14.0415 68.1025 14.0797C68.1025 14.0797 68.1026 14.0797 68.1026 14.0797C68.1417 14.1273 68.1438 14.2038 68.0843 14.2638C67.7957 14.5544 67.3985 15.0363 67.0611 15.6975C67.055 15.7094 67.0489 15.7212 67.0429 15.7329L66.9071 15.832C65.8841 16.7755 65.54 16.4541 63.9424 17.3692C62.3124 18.2749 61.3953 19.0764 59.216 19.486C57.0544 19.8563 56.8598 21.1364 53.6812 21.2006C50.5276 21.2021 50.4427 22.4419 47.3862 23.0591C44.3255 23.6644 40.3796 23.2888 38.5368 23.4216C36.687 23.5678 34.2001 23.7725 31.5724 23.578C28.9542 23.3895 25.6965 23.6454 22.8261 23.1213C19.9548 22.6156 15.9642 21.7545 14.1418 21.2199C12.3276 20.6929 11.8894 20.5631 10.0843 20.3743C9.03043 20.2596 7.66902 19.8945 6.54933 19.306C6.01143 19.0148 6.19048 18.8347 6.79603 18.8717C7.71939 18.9326 8.37704 19.176 8.89381 19.0051C9.88233 18.6518 10.3003 18.5223 11.3738 19.0414C12.4369 19.555 13.117 18.9337 13.7436 19.1181C14.3902 19.2958 14.3122 19.7519 17.7343 19.8636C21.1526 19.9507 23.0049 19.9946 24.2889 20.0134C25.5834 20.0326 28.2269 20.5503 30.3289 20.46C32.4225 20.3961 36.6729 20.4585 38.369 20.138C40.0628 19.8316 40.0891 20.3033 41.4931 20.4652ZM4.83402 13.18C5.12637 12.9723 3.98784 12.613 4.20982 12.305C4.43452 12.0039 5.05006 12.0961 5.00205 11.7021C4.95876 11.2962 5.4934 11.0623 5.32165 10.8091C5.15911 10.5334 5.86953 10.8349 5.8261 10.5366C5.78993 10.2327 5.97988 10.1183 6.31952 10.085C6.6591 10.0243 7.24927 9.78215 7.39838 9.41947C7.57432 9.00914 8.04514 9.48658 8.16526 9.6195C8.21444 9.65831 8.25067 9.71364 8.27581 9.77118C8.28653 9.79559 8.28919 9.84591 8.28667 9.89527C8.28667 9.8953 8.28667 9.89534 8.28667 9.89537C8.28346 9.95685 8.27298 10.0169 8.25986 10.0242C8.1962 10.0591 8.1008 10.1609 8.05097 10.3936C8.00407 10.8242 7.87864 10.3794 7.80534 10.6525C7.76075 10.9376 8.06762 11.236 7.73298 11.2212C7.55856 11.2301 7.70563 11.4181 7.82549 11.5627C7.94153 11.7172 8.02738 11.8233 7.65763 11.877C6.9085 12.0413 8.0561 12.4458 8.13988 12.8251C8.22262 13.2142 7.50117 13.6675 7.53596 13.9464C7.56956 14.2177 7.69081 14.5787 7.52407 14.9612C7.35653 15.3493 7.76472 15.8246 7.4974 16.2659C7.22794 16.7096 6.91384 17.3643 6.70138 17.6792C6.48841 17.9964 6.44206 18.0773 6.61987 18.3419C6.7227 18.4971 6.67057 18.7258 6.38837 18.9584C6.24616 19.0736 6.02719 19.0845 5.91029 19.0015C5.73931 18.8789 5.82517 18.7439 5.54546 18.7044C4.98603 18.6206 4.76978 18.5733 5.06435 18.3472C5.35898 18.1187 4.63344 18.1053 4.70499 17.9809C4.77774 17.8563 5.19779 17.8272 4.82846 17.2784C4.46157 16.7253 4.3677 16.4012 4.2815 16.1827C4.19508 15.9596 4.55522 15.4901 4.42625 15.1263C4.29308 14.7588 4.44727 14.0134 4.25847 13.6857C4.06728 13.3568 4.54277 13.3935 4.83402 13.18ZM40.8005 9.96164C42.1216 10.0157 42.9108 8.68316 44.4606 8.54799C46.0044 8.40693 46.403 8.96192 48.1013 8.43497C49.858 7.89047 51.6458 7.87008 52.3912 7.40746C53.093 6.9554 53.3656 7.68625 54.4226 7.21413C55.4902 6.73602 56.1664 6.64364 57.1913 6.60004C58.2394 6.5566 61.2046 5.84104 62.1975 5.17363C63.1444 4.53046 64.5134 4.62198 65.2943 4.47881C65.5362 4.4349 65.7351 4.42128 65.893 4.42458C65.9599 4.426 66.004 4.46333 66.0208 4.50985C66.0208 4.50988 66.0208 4.50991 66.0208 4.50994C66.0416 4.56787 66.0199 4.64001 65.9469 4.67449C65.5924 4.84184 65.0795 5.13041 64.5136 5.56411C63.4503 6.37254 63.2153 5.9704 61.6302 6.72052C60.076 7.45346 59.2232 8.17326 57.2134 8.48407C55.2333 8.77403 55.0718 10.0345 52.1457 10.1211C49.2496 10.1739 49.2236 11.4248 46.4618 12.181C43.7118 12.9318 40.0124 12.8517 38.3221 13.1205C36.6522 13.3998 34.319 13.8016 31.8853 13.7927C29.4529 13.7912 26.412 14.2558 23.7015 13.8488C20.9971 13.4753 17.242 12.6542 15.5805 12.0928C13.9009 11.5431 13.4949 11.3977 11.8306 11.1617C10.8681 11.0294 9.61785 10.5868 8.62047 10.1008C8.09733 9.88606 8.19947 9.66134 8.81845 9.64706C9.68413 9.65071 10.3283 9.93642 10.7988 9.7676C11.7521 9.44125 12.146 9.32633 13.1028 9.86863C14.0775 10.4107 14.7137 9.79806 15.2843 9.99071C15.8813 10.1712 15.7959 10.6539 18.9275 10.7339C22.0845 10.7734 23.7624 10.717 24.9417 10.6789C26.1443 10.6393 28.5697 11.0048 30.5071 10.7695C32.426 10.5675 36.3702 10.3034 37.8802 9.86247C39.451 9.42765 39.4661 9.90277 40.8005 9.96164ZM33.1582 3.35946C31.837 3.24039 30.9856 4.53477 29.4342 4.61434C27.8727 4.70726 27.5252 4.13212 25.7931 4.63583C24.0713 5.14339 22.2296 5.19694 21.5307 5.66581C20.8385 6.13363 20.5328 5.41165 19.4975 5.92117C18.4679 6.43615 17.7928 6.56773 16.7692 6.68221C15.7431 6.77526 12.8094 7.80161 11.9542 8.59744C11.0944 9.36421 9.73098 9.49711 8.99586 9.7773C8.76798 9.86317 8.57726 9.91265 8.42325 9.93843C8.35802 9.94934 8.30786 9.92098 8.28251 9.87853C8.28249 9.8785 8.28247 9.87847 8.28246 9.87845C8.25093 9.82559 8.25802 9.75083 8.3226 9.70348C8.63618 9.47359 9.08442 9.09759 9.57874 8.57239C10.5122 7.59808 10.8462 7.93175 12.3137 6.99323C13.7919 6.07259 14.6068 5.25867 16.6294 4.80119C18.6402 4.37998 18.7437 3.10294 21.726 2.95049C24.6857 2.86092 24.6949 1.62257 27.537 0.921716C30.3833 0.232256 34.0986 0.509885 35.8216 0.337413C37.5513 0.150018 39.8815 -0.105452 42.3438 0.0461048C44.7988 0.191119 47.8565 -0.106079 50.5475 0.395645C53.2394 0.876349 56.9706 1.72872 58.6659 2.26788C60.3531 2.79826 60.7609 2.92986 62.4468 3.13109C63.432 3.25376 64.6977 3.63227 65.7218 4.23527C66.2131 4.53345 66.0357 4.70954 65.4705 4.664C64.609 4.59051 64.0035 4.34135 63.5133 4.50648C62.576 4.84955 62.1834 4.97572 61.1981 4.45199C60.2205 3.93389 59.5678 4.55189 58.9893 4.36664C58.3914 4.18934 58.4733 3.72864 55.2829 3.62389C52.0941 3.54688 50.3745 3.52245 49.1769 3.5152C47.9741 3.50798 45.5088 3.02106 43.5518 3.14402C41.6033 3.23782 37.6473 3.2565 36.077 3.61533C34.5134 3.95843 34.4703 3.48833 33.1582 3.35946ZM69.4528 9.26072C69.196 9.51154 70.3769 9.68931 70.2153 9.99702C70.0528 10.3111 69.4296 10.3583 69.569 10.6999C69.7076 11.0575 69.2742 11.379 69.5264 11.5425C69.7786 11.7043 69.0038 11.7032 69.1692 11.9171C69.3341 12.135 69.2279 12.2644 68.9682 12.4454C68.7096 12.616 68.4653 13.1814 68.7612 13.4034C69.058 13.6261 68.5066 13.8311 68.3697 13.9664C68.327 14.0087 68.2704 14.0405 68.2122 14.0638C68.1875 14.0737 68.1371 14.0755 68.0878 14.0721C68.0878 14.0721 68.0877 14.0721 68.0877 14.0721C68.0263 14.0677 67.9665 14.0552 67.9598 14.0399C67.9272 13.9655 67.8352 13.8516 67.6205 13.7134C67.2199 13.4567 67.6806 13.4642 67.4848 13.1447C67.2889 12.8145 66.8706 12.6231 67.1621 12.2721C67.4527 11.912 66.2996 11.813 66.9669 11.3165C67.6313 10.835 66.4221 10.7455 66.2592 10.2696C66.0963 9.78711 66.7408 9.15832 66.6667 8.8643C66.5944 8.57767 66.4249 8.20251 66.5365 7.79553C66.6473 7.37614 66.174 6.97797 66.3536 6.544C66.5366 6.08839 66.6765 5.49125 66.7299 5.18479C66.7975 4.88149 66.7144 4.75251 66.5451 4.85127C66.462 4.92521 66.4736 4.81595 66.1613 4.62248C66.0107 4.53029 65.8828 4.34887 65.9561 4.18843C66.076 3.95413 66.2831 4.01166 66.3988 3.73418C66.6593 3.17504 67.0865 3.02516 67.3383 3.51327C67.4432 3.75042 67.5913 3.74275 67.7727 3.72545C67.9511 3.70814 68.1346 3.66649 68.1819 3.78072C68.2442 4 67.9789 4.24315 68.6132 4.78653C69.2284 5.36886 69.3792 5.74651 69.5203 5.97532C69.6625 6.2286 69.3957 6.80867 69.5784 7.18217C69.7699 7.57178 69.7153 8.36423 69.9487 8.66866C70.1841 8.96839 69.7089 9.01203 69.4528 9.26072ZM25.4441 76.1998C25.4529 77.8489 26.8253 78.9165 26.9918 80.9001C27.1583 82.8838 26.5929 83.2806 27.1095 85.4973C27.6261 87.714 27.5841 90.0262 28.0051 90.981C28.4262 91.9357 27.68 92.1699 28.0889 93.5576C28.4977 94.9453 28.5429 95.8205 28.5038 97.1011C28.4646 98.3817 28.8953 102.223 29.434 103.555C29.9727 104.888 29.71 106.555 29.7447 107.526C29.7556 107.828 29.7413 108.07 29.7158 108.257C29.7049 108.337 29.6614 108.38 29.6127 108.389C29.6127 108.389 29.6126 108.389 29.6126 108.389C29.5519 108.399 29.4831 108.355 29.459 108.259C29.3422 107.794 29.125 107.106 28.7643 106.311C28.0918 104.828 28.5167 104.582 27.9519 102.522C27.3871 100.462 26.7528 99.2736 26.6091 96.7618C26.4653 94.2499 25.2287 93.8762 25.2875 90.2863C25.3463 86.6964 24.0912 86.5316 23.3468 83.0898C22.6024 79.6479 22.5214 75.1583 22.1137 73.0766C21.706 70.9949 21.0928 68.2101 20.7497 65.2193C20.4066 62.2285 19.3912 58.6365 19.1196 55.3171C18.848 51.9977 18.4217 47.312 18.2986 45.1347C18.1755 42.9576 18.1412 42.4277 17.6486 40.3952C17.3654 39.227 17.1691 37.5849 17.2439 36.1572C17.2815 35.4387 17.5233 35.5592 17.7439 36.2388C18.0666 37.2325 18.1073 38.086 18.4649 38.5657C19.1797 39.5242 19.4613 39.9354 19.3721 41.3129C19.2829 42.6903 20.0993 43.1944 20.1479 43.9803C20.1964 44.7664 19.7748 44.8245 20.761 48.6961C21.7471 52.5678 22.1931 54.7063 22.5217 56.18C22.8504 57.6538 23.0107 60.8199 23.5512 63.2209C24.0918 65.6219 24.8033 70.5685 25.3537 72.518C25.9041 74.4675 25.4354 74.5509 25.4441 76.1998ZM36.7756 108.545C37.0433 108.822 37.2963 107.655 37.6229 107.827C37.9467 107.999 37.9982 108.623 38.384 108.484C38.7699 108.343 39.1661 108.762 39.3333 108.502C39.4993 108.241 39.5413 109.015 39.7822 108.835C40.0241 108.655 40.1769 108.75 40.4054 108.992C40.6364 109.234 41.324 109.41 41.5458 109.083C41.7701 108.758 42.0827 109.272 42.2643 109.385C42.3202 109.42 42.3664 109.471 42.4032 109.524C42.4187 109.547 42.4292 109.597 42.4334 109.646C42.4334 109.646 42.4334 109.646 42.4334 109.646C42.4385 109.707 42.4338 109.768 42.4169 109.778C42.335 109.822 42.2166 109.932 42.0848 110.166C41.8399 110.602 41.7702 110.146 41.4096 110.385C41.0445 110.622 40.8379 111.062 40.373 110.807C39.916 110.549 39.8474 111.711 39.1888 111.069C38.54 110.424 38.4896 111.634 37.8322 111.79C37.1739 111.945 36.3756 111.241 35.9871 111.271C35.5972 111.302 35.0507 111.401 34.5106 111.181C33.9759 110.962 33.2275 111.264 32.654 110.866C32.0861 110.475 31.3192 109.914 31.0102 109.567C30.6963 109.221 30.6336 109.143 30.2227 109.153C29.9866 109.158 29.7265 108.969 29.6218 108.582C29.5717 108.388 29.6899 108.202 29.8412 108.155C30.0648 108.086 30.1577 108.233 30.3418 108.012C30.7047 107.568 30.8309 107.392 30.9332 107.764C31.0381 108.135 31.3611 107.48 31.4525 107.595C31.5484 107.709 31.4284 108.128 32.1449 107.974C32.8562 107.81 33.2139 107.784 33.4695 107.751C33.7223 107.716 34.1787 108.16 34.6027 108.076C35.0196 107.995 35.8417 108.189 36.1902 107.989C36.5383 107.792 36.5101 108.266 36.7756 108.545ZM38.5688 74.4282C38.5611 76.2243 39.9255 77.439 40.0725 79.6054C40.2194 81.7718 39.649 82.1824 40.1445 84.6159C40.6399 87.0493 40.5746 89.5657 40.9869 90.6213C41.3993 91.6769 40.6494 91.9037 41.0451 93.4303C41.4409 94.9569 41.4775 95.9117 41.4254 97.3047C41.3734 98.6977 41.7665 102.897 42.2929 104.368C42.8194 105.84 42.5395 107.646 42.5646 108.704C42.5724 109.033 42.5557 109.296 42.5283 109.499C42.5166 109.586 42.4726 109.631 42.4237 109.638C42.4236 109.638 42.4236 109.638 42.4236 109.638C42.3627 109.647 42.2941 109.596 42.271 109.491C42.1586 108.98 41.9478 108.223 41.5944 107.343C40.9354 105.703 41.3636 105.451 40.8183 103.186C40.273 100.922 39.6494 99.6039 39.5305 96.8632C39.4115 94.1225 38.1763 93.6685 38.2711 89.7615C38.3658 85.8547 37.11 85.6274 36.3985 81.8512C35.6871 78.075 35.6508 73.183 35.2631 70.9006C34.8754 68.6182 34.2889 65.5624 33.975 62.2926C33.6612 59.0228 32.6797 55.0727 32.4407 51.4478C32.2018 47.8229 31.8215 42.7042 31.72 40.3286C31.6184 37.9532 31.5893 37.3748 31.116 35.1429C30.844 33.86 30.6637 32.0644 30.7529 30.5125C30.7978 29.7316 31.0388 29.872 31.2531 30.6204C31.5665 31.7147 31.5987 32.6458 31.9523 33.1817C32.6588 34.2527 32.9368 34.7111 32.8337 36.2077C32.7305 37.7042 33.5435 38.2842 33.5843 39.1419C33.625 39.9996 33.2021 40.0469 34.1515 44.3004C35.1008 48.5539 35.5262 50.8995 35.8408 52.5168C36.1554 54.1341 36.2843 57.5879 36.8019 60.223C37.3196 62.8581 37.983 68.2717 38.515 70.4155C39.047 72.5593 38.5765 72.6323 38.5688 74.4282ZM45.5209 29.0236C44.7486 28.8971 44.3895 30.1583 43.4723 30.1527C42.5554 30.1458 42.3177 29.5546 41.3269 29.8647C40.3343 30.1743 39.2498 29.9148 38.8371 30.2383C38.4236 30.562 38.2573 29.8041 37.6412 30.0712C37.0239 30.3378 36.6183 30.2945 36.0203 30.1252C35.4223 29.9579 33.6685 29.976 33.0787 30.359C32.4854 30.7451 31.7029 30.2967 31.2577 30.2189C31.1189 30.1947 31.0074 30.1526 30.9203 30.1055C30.8835 30.0855 30.8621 30.0374 30.8567 29.9883C30.8567 29.9883 30.8567 29.9882 30.8567 29.9882C30.8499 29.927 30.8677 29.8642 30.9107 29.8515C31.1197 29.7903 31.4277 29.6552 31.779 29.3892C32.4294 28.8927 32.5638 29.3406 33.4818 29.0084C34.4013 28.6739 34.9066 28.1746 36.0543 28.2902C37.2039 28.4027 37.2846 27.2231 38.9443 27.6259C40.6101 28.0225 40.5798 26.8004 42.0977 26.375C43.6148 25.9488 45.6882 26.239 46.6102 26.0026C47.5326 25.7677 48.7538 25.3812 50.1036 25.2635C51.4552 25.1461 52.9937 24.4016 54.5045 24.3535C56.0147 24.3078 58.1497 24.1747 59.152 24.1788C60.1524 24.1842 60.3971 24.18 61.274 23.8096C61.7745 23.5973 62.515 23.4922 63.2002 23.6372C63.5429 23.7107 63.5295 23.9397 63.2486 24.1199C62.8355 24.3838 62.4387 24.3793 62.2735 24.7024C61.9381 25.3494 61.7948 25.6012 61.1253 25.4405C60.4635 25.2775 60.3516 26.047 59.9905 26.0495C59.6272 26.0513 59.5341 25.6408 57.8584 26.3738C56.1796 27.1046 55.2323 27.4005 54.5819 27.6264C53.9335 27.8519 52.4605 27.7959 51.3995 28.1546C50.3383 28.5167 48.0962 28.844 47.2406 29.2295C46.3865 29.6164 46.2926 29.1492 45.5209 29.0236ZM48.8944 107.515C49.2008 107.73 49.1908 106.537 49.5315 106.642C49.8739 106.746 50.0387 107.35 50.3716 107.141C50.7024 106.933 51.1476 107.278 51.2547 106.994C51.3618 106.71 51.538 107.465 51.7293 107.249C51.9215 107.032 52.0787 107.102 52.3314 107.305C52.5832 107.509 53.244 107.583 53.398 107.23C53.551 106.878 53.924 107.343 54.1062 107.431C54.1629 107.459 54.2128 107.503 54.2546 107.551C54.2723 107.571 54.2893 107.619 54.3006 107.667C54.3006 107.667 54.3006 107.667 54.3006 107.667C54.3147 107.727 54.3197 107.788 54.3057 107.799C54.2378 107.854 54.1465 107.977 54.0623 108.226C53.9039 108.69 53.7735 108.248 53.4804 108.533C53.1871 108.818 53.0725 109.282 52.61 109.099C52.1512 108.914 52.2943 110.067 51.5893 109.543C50.8881 109.016 51.0664 110.214 50.5199 110.484C49.9719 110.753 49.124 110.227 48.7881 110.34C48.4516 110.455 48.0045 110.672 47.4851 110.592C46.9676 110.511 46.4132 111 45.8246 110.791C45.2375 110.584 44.4231 110.318 44.0421 110.116C43.6607 109.915 43.5712 109.87 43.2432 110.05C43.0558 110.153 42.7752 110.099 42.5211 109.808C42.3938 109.661 42.4018 109.442 42.5068 109.328C42.6608 109.161 42.807 109.25 42.8677 108.971C42.9897 108.412 43.0375 108.197 43.2846 108.492C43.5307 108.786 43.5588 108.058 43.6906 108.127C43.8234 108.196 43.8696 108.621 44.4669 108.221C45.0623 107.819 45.3934 107.689 45.6214 107.578C45.8491 107.468 46.3993 107.762 46.7691 107.57C47.1371 107.38 47.9474 107.371 48.2275 107.101C48.5072 106.831 48.59 107.299 48.8944 107.515ZM53.4828 73.7369C53.3204 75.4514 54.5749 76.7172 54.5347 78.7974C54.4944 80.8775 53.8908 81.2253 54.1748 83.5876C54.4586 85.9497 54.1769 88.3476 54.4966 89.3876C54.8165 90.4276 54.0499 90.586 54.3126 92.0745C54.5753 93.563 54.5295 94.4776 54.3577 95.8037C54.1858 97.13 54.2156 101.17 54.6133 102.616C55.011 104.062 54.5765 105.765 54.5104 106.777C54.4898 107.093 54.4506 107.342 54.4057 107.534C54.3867 107.616 54.3389 107.656 54.2896 107.659C54.2895 107.659 54.2895 107.659 54.2895 107.659C54.228 107.662 54.1641 107.609 54.1501 107.506C54.0822 107.01 53.9375 106.27 53.6612 105.403C53.1461 103.785 53.5943 103.578 53.2462 101.373C52.8981 99.1682 52.3904 97.8615 52.5081 95.2351C52.6257 92.6087 51.4343 92.0794 51.8653 88.3559C52.2963 84.6325 51.0649 84.3181 50.6815 80.6569C50.2981 76.9957 50.6834 72.3214 50.4938 70.1118C50.3043 67.9023 49.9832 64.9387 49.9523 61.792C49.9213 58.6452 49.2839 54.797 49.3582 51.317C49.4325 47.8369 49.4946 42.9195 49.5981 40.6431C49.7015 38.3669 49.7224 37.8123 49.4432 35.6443C49.2827 34.3981 49.2578 32.6695 49.4804 31.1945C49.5924 30.4522 49.8203 30.6051 49.9694 31.3363C50.1872 32.4056 50.1391 33.2972 50.4452 33.8364C51.0567 34.9139 51.2941 35.3732 51.0625 36.7944C50.8308 38.2154 51.5907 38.8323 51.5574 39.6545C51.5241 40.4768 51.0988 40.4891 51.678 44.6245C52.2573 48.7599 52.479 51.0328 52.653 52.6016C52.827 54.1704 52.6579 57.4785 52.9466 60.035C53.2352 62.5914 53.4297 67.8125 53.7749 69.9009C54.1202 71.9893 53.6452 72.0225 53.4828 73.7369ZM61.5082 55.7631C61.8089 54.1615 60.661 52.8708 60.8694 50.9153C61.0779 48.9598 61.7076 48.6799 61.6159 46.4332C61.5241 44.1867 61.999 41.9511 61.7645 40.9465C61.5299 39.9421 62.3068 39.8534 62.1654 38.4311C62.024 37.0089 62.1437 36.1513 62.4223 34.9162C62.7009 33.6809 62.9982 29.874 62.7189 28.4814C62.4396 27.0887 63.0104 25.5195 63.1582 24.5716C63.2043 24.2763 63.2636 24.0444 63.3239 23.867C63.3494 23.7918 63.4003 23.7579 63.4497 23.759C63.4497 23.759 63.4498 23.759 63.4498 23.759C63.5113 23.7603 63.5707 23.8158 63.5763 23.9133C63.6039 24.3863 63.6882 25.0941 63.8934 25.9326C64.2759 27.496 63.8124 27.6559 63.9809 29.7596C64.1493 31.8632 64.5496 33.1335 64.2198 35.5973C63.89 38.061 65.0345 38.6533 64.3036 42.1254C63.5727 45.5973 64.7746 45.9904 64.8604 49.468C64.9461 52.9456 64.1838 57.3165 64.1939 59.4119C64.204 61.5073 64.2841 64.3231 64.0603 67.2885C63.8365 70.2539 64.1603 73.9276 63.8046 77.1985C63.4489 80.4695 62.9889 85.0948 62.7016 87.23C62.4142 89.3652 62.3485 89.8857 62.4513 91.9491C62.5104 93.1351 62.3953 94.7648 62.0541 96.1361C61.8824 96.8262 61.6676 96.6643 61.5782 95.964C61.4476 94.94 61.5677 94.1043 61.3064 93.5724C60.784 92.5097 60.5846 92.0585 60.9305 90.7386C61.2764 89.4188 60.569 88.7781 60.6687 88.0065C60.7684 87.2349 61.1934 87.2568 60.9507 83.3174C60.7081 79.3778 60.6711 77.2202 60.6247 75.7293C60.5782 74.2384 61.0144 71.1369 60.9337 68.707C60.853 66.2771 61.0817 61.3457 60.9066 59.352C60.7315 57.3583 61.2076 57.3646 61.5082 55.7631Z" fill="#CF410C"/>
</svg>
